<?xml version="1.0" encoding="utf-8"?>
<!-- Generator: Adobe Illustrator 23.1.0, SVG Export Plug-In . SVG Version: 6.00 Build 0)  -->
<svg version="1.1" id="Layer_1" xmlns="http://www.w3.org/2000/svg" xmlns:xlink="http://www.w3.org/1999/xlink" x="0px" y="0px"
	 viewBox="0 0 211 147" style="enable-background:new 0 0 211 147;" xml:space="preserve">
<style type="text/css">
	.st0{fill:#99958F;}
</style>
<g>
	<path class="st0" d="M30,50.2c0.6,0.6,0.6,1.2,1.2,1.2c0,0,0.6,0,0.6-0.6C31.2,50.8,30.6,50.2,30,50.2z M165.2,82.3
		c0.6-1.2,0.6-1.2,0-1.8C165.2,81.1,165.2,81.7,165.2,82.3z M129.3,118.4c-0.6-0.6-1.2-1.2-1.8-1.2
		C127.5,117.8,128.7,117.8,129.3,118.4z M79.9,62.4c0,1.2,0.6,1.2,1.2,1.8C81.7,63,80.5,63,79.9,62.4z M165.7,69.4
		c0,0,0-0.6-0.6-0.6c-0.6,0-0.6,0.6-0.6,1.2c0,0,0,0.6,0.6,0.6C165.7,70.6,165.7,70,165.7,69.4z M186.9,48.4c0,0.6,0.6,1.2,1.2,1.8
		C188.1,49.6,187.5,49,186.9,48.4z M208.6,117.3c0-0.6,0-1.2,0-1.8c0,0,0-0.6-0.6-0.6c0,0-0.6,0,0,0.6
		C208.6,116.1,208.6,116.7,208.6,117.3z M74.6,43.8c-0.6,0.6-0.6,1.8-0.6,2.3v0.6c0,0,0,0,0-0.6C74.6,45.5,74.6,44.9,74.6,43.8z
		 M92.9,43.8c-0.6,0-0.6,0-1.2,0c0,0-0.6,0-0.6,0.6c0,0.6,0.6,0.6,1.2,0.6C92.3,44.3,92.9,44.3,92.9,43.8z M87.6,22.8
		c-0.6,0-0.6-0.6-1.2,0c-0.6,0.6-0.6,0.6,0,1.2C87,23.3,87.6,22.8,87.6,22.8z M199.2,114.3c0,0,0-0.6-0.6-0.6l-0.6,0.6
		c0,0,0,0.6,0.6,0.6C199.2,114.9,199.8,114.3,199.2,114.3z M109.9,118.4c0.6,0.6,1.2,1.8,1.8,2.3C111.7,119.6,111.1,119,109.9,118.4
		z M126.4,74.7c-0.6-0.6-0.6-1.8-1.2-2.3C124.6,74.1,125.8,74.1,126.4,74.7z M163.4,134.2c0.6-0.6,0-1.2,0-1.8c0,0,0-0.6-0.6-0.6
		c-0.6,0-0.6,0.6-0.6,0.6v0.6C164,133,163.4,133.6,163.4,134.2z M112.8,132.4c0.6,0.6,1.2,1.2,1.8,1.8
		C114.6,133,114,132.4,112.8,132.4z M40,32.1c0,1.2,0,1.8,0.6,2.3C41.1,33.3,40.6,32.7,40,32.1z M40,48.4c1.2,0.6,1.8,0,2.4,0
		C41.7,47.8,41.1,47.8,40,48.4z M57,19.8c0.6,0,1.2,0,1.8,0c0,0,0-0.6-0.6-0.6C57.6,18.7,57.6,19.3,57,19.8z M108.7,95.1
		c0-0.6-0.6-1.2-1.2-1.2C107.6,94.5,107.6,95.1,108.7,95.1z M165.7,92.2c0,0.6-0.6,1.8,0,2.3C165.7,93.9,165.7,93.3,165.7,92.2z
		 M28.8,42.6l-0.6,0.6c0,0.6,0.6,0.6,0.6,0.6s0.6,0,0.6-0.6C29.4,42.6,28.8,43.2,28.8,42.6z M109.9,132.4c-0.6,0.6-0.6,1.2-0.6,1.8
		c0,0,0,0,0.6,0C109.9,133.6,110.5,133,109.9,132.4z M156.3,120.8c0-1.2-0.6-1.8-1.2-2.3C155.8,119,155.8,119.6,156.3,120.8z
		 M81.1,135.9c0.6-0.6,1.2-1.8,0.6-2.9C81.7,134.2,80.5,134.8,81.1,135.9z M41.1,37.3c-0.6,1.2-1.2,1.8-1.8,1.8
		C40,39.1,41.7,39.7,41.1,37.3z M70.5,105c0-0.6,0-1.8-0.6-2.3C69.9,103.8,69.9,104.4,70.5,105z M40,30.3c0,1.2,1.2,1.2,1.8,1.8
		C41.1,32.1,41.1,30.9,40,30.3z M132.8,133c0.6,0,0.6-0.6,0.6-0.6c0-0.6,0-0.6,0-1.2c0,0,0,0-0.6,0s0,0.6,0,0.6
		C132.2,131.8,132.2,132.4,132.8,133z M132.8,126.6c0-0.6-0.6-0.6-1.2-0.6c-0.6,0-0.6,0-0.6,0.6
		C131.7,126.6,132.2,127.2,132.8,126.6C132.8,127.2,132.8,127.2,132.8,126.6z M149.9,107.3c0,1.2,0.6,1.8,1.2,2.3
		C151.1,109.1,150.5,108.5,149.9,107.3z M50.5,68.8c0,1.2,0,2.3,1.2,2.9C51.7,70.6,51.1,69.4,50.5,68.8z M185.7,93.3
		c0.6,0.6,0.6,1.2,1.2,1.8C186.9,94.5,186.9,93.3,185.7,93.3z M207.5,110.3c0,1.2,0,1.8,0.6,2.9C208.6,112,208.1,111.4,207.5,110.3z
		 M168.1,56c-0.6,0.6-2.4,0-1.8,1.8C167.5,57.2,168.1,56.6,168.1,56z M37,34.4c0.6-0.6,2.4-0.6,1.8-1.8C38.2,32.7,37.6,33.8,37,34.4
		z M164,75.8C164,76.4,163.4,76.4,164,75.8c-0.6,0.6-0.6,1.8,0,1.8c0.6,0-0.6-1.2,0.6-1.2C165.2,76.4,164.6,75.8,164,75.8z
		 M59.4,21.6c-1.2-0.6-1.8,0-2.9,0.6C57.6,21.6,58.2,21.6,59.4,21.6z M119.9,133c-0.6,0-0.6,0.6-0.6,0.6c0,0.6,0.6,0.6,0.6,0.6
		s0.6,0,0.6-0.6C120.5,133.6,120.5,133,119.9,133z M81.1,64.8c-0.6,0-1.2,0-1.2,0.6c0,0.6,0.6,1.2,1.2,1.8
		C81.7,66.5,79.9,65.9,81.1,64.8z M66.4,113.8c0-0.6,0-1.2,0-1.8c0,0,0-0.6-0.6-0.6c-0.6,0,0,0.6-0.6,0.6
		C65.8,112.6,65.8,113.2,66.4,113.8z M182.8,93.3c0.6,0.6,1.2,1.8,1.8,2.3C184,95.1,184,93.9,182.8,93.3z M120.5,129.5
		c-0.6,1.2,0.6,1.2,1.2,1.8C121.7,130.7,121.7,130.7,120.5,129.5z M62.9,85.2c-0.6-0.6,0-1.8-1.2-2.9C61.7,83.4,62.3,84.6,62.9,85.2
		z M49.4,48.4c1.2,0,2.4,0.6,3.5-0.6C51.1,47.8,50,48.4,49.4,48.4z M69.4,15.8c-1.2-0.6-1.8-0.6-2.9,0C67,16.3,68.2,15.2,69.4,15.8z
		 M135.2,130.1c-0.6,0.6-0.6,0.6-1.2,1.2c0,0.6,0,0.6,0.6,0.6c0.6,0,0.6-0.6,0.6-0.6C135.2,130.7,135.2,130.1,135.2,130.1z
		 M162.2,124.8c0-1.2,0-2.3-1.2-2.9C161,123.1,162.2,123.7,162.2,124.8z M34.7,34.4c-1.2,0-1.8,0.6-2.9,1.2
		C33.5,35.6,34.1,35,34.7,34.4z M109.9,92.8c1.2,0,2.4,0.6,2.9,0.6C112.3,92.8,111.1,92.2,109.9,92.8z M50,36.8
		c0.6-0.6,1.2-0.6,1.2-1.8h-0.6C50,35,50,35.6,50,36.8z M191.6,115.5c0-1.2-0.6-1.8-1.2-2.9C190.4,113.8,191,114.9,191.6,115.5z
		 M196.3,133.6c0.6,0,0.6-0.6,1.2-0.6v-0.6c0,0,0-0.6-0.6-0.6s-0.6,0-0.6,0.6C196.3,133,196.3,133.6,196.3,133.6z M148.7,94.5
		c1.2,0,1.2-0.6,1.8-1.8v-0.6h-0.6C149.3,93.3,149.3,93.9,148.7,94.5z M142.2,93.3c0,0.6,0,0.6,0,0.6c0,0.6,0.6,0.6,1.2,0.6h0.6
		c0-0.6-0.6-0.6-0.6-0.6C142.8,93.3,142.2,93.3,142.2,93.3z M197.5,133.6c-0.6,0.6-1.2,1.2-0.6,1.8h0.6
		C198.1,135.3,197.5,134.8,197.5,133.6z M152.2,102.7c0-1.2-0.6-1.8-1.8-2.9C150.5,100.9,151.1,102.1,152.2,102.7z M114.6,126
		c0.6,1.2,1.2,1.8,1.8,2.3C116.4,127.8,116.4,126.6,114.6,126z M27.6,39.7c0.6,0,0.6,0.6,1.2,0.6c0,0.6,0.6,0.6,0.6,0.6
		c0-0.6-0.6-1.2-0.6-1.2C28.2,39.7,27.6,39.7,27.6,39.7z M79.3,26.8c1.2,0.6,1.8,0,2.4-0.6C81.1,26.3,79.9,26.3,79.3,26.8z M127,133
		c0.6,0,1.2,0.6,1.8,0c0.6,0,0-0.6,0-0.6C127.5,131.8,127.5,132.4,127,133z M81.7,25.7c1.2,0.6,1.8,0,2.9-1.2
		C83.5,25.1,82.9,25.1,81.7,25.7z M89.3,45.5c-1.2-0.6-1.8-0.6-2.4,0.6C88.2,46.1,88.7,46.1,89.3,45.5z M67,10.5
		c-1.2-0.6-2.4-0.6-3.5-1.2C64.7,9.9,65.8,10.5,67,10.5z M194,121.9c0.6,0,0.6-0.6,0.6-0.6c0.6-0.6,0-0.6,0-1.2c0,0,0,0-0.6,0
		c-0.6,0-0.6,0.6,0,1.2V121.9z M34.7,32.1c-0.6,0.6-1.8,0.6-2.9,1.8C33.5,33.3,34.1,32.7,34.7,32.1z M107,91
		c1.2,1.2,2.4,1.2,3.5,0.6C109.3,91.6,108.1,91,107,91z M75.8,14c1.8-0.6,2.9-0.6,4.1-1.8C78.8,12.8,77,13.4,75.8,14z M122.8,127.2
		c0,1.8,0,1.8,1.2,1.8C124,128.3,123.4,127.8,122.8,127.2z M40,36.2c-1.2,0.6-2.4,0.6-2.9,1.8C38.2,37.3,39.4,37.3,40,36.2z
		 M145.8,92.2c-0.6-0.6-1.2-1.8-2.4-1.8C144,91,144.6,92.2,145.8,92.2z M115.2,125.4c-0.6-0.6-1.2-1.8-2.4-2.3
		C113.4,123.7,114,124.8,115.2,125.4z M53.5,39.7C53.5,39.1,53.5,39.1,53.5,39.7c-1.2,0-1.8,0-1.8,0.6c0,0,0,0.6,0.6,0.6
		C52.9,40.3,53.5,40.3,53.5,39.7z M78.8,57.8c0,1.2,0,1.8,0.6,2.9c0,0,0.6,0.6,0.6,0c0,0,0,0,0-0.6C79.3,60.1,79.9,58.9,78.8,57.8z
		 M183.4,89.8c0.6,1.2,1.2,1.8,1.8,1.8C185.1,91,184.6,90.4,183.4,89.8z M133.4,128.9c0,0.6,0,0.6-0.6,1.2c-0.6,0.6,0,0.6,0.6,0.6
		s0.6,0,0.6-0.6C134,129.5,134,128.9,133.4,128.9z M94.6,28c1.8,0.6,2.4,0,3.5-1.2C97,27.4,95.8,28,94.6,28z M124,123.1
		c0,1.8,0.6,2.3,1.8,2.3C125.2,124.8,124.6,123.7,124,123.1z M122.8,129.5C122.8,130.1,122.8,130.1,122.8,129.5
		c0,0.6,0.6,1.2,1.2,1.2s0.6,0,1.2,0c0-0.6,0-0.6-0.6-0.6C124,130.1,123.4,130.1,122.8,129.5z M190.4,91.6c-0.6,0-1.2,0.6-1.8,0.6
		c-0.6,0-0.6,0.6-0.6,0.6c0,0.6,0.6,0,0.6,0C189.8,92.8,190.4,92.2,190.4,91.6z M35.9,31.5c0,0.6,0,1.2,0.6,0.6
		c0.6,0,1.2-0.6,1.8-1.2l0.6-0.6c-0.6-0.6-0.6,0-0.6,0C37.6,31.5,37,31.5,35.9,31.5z M20,50.2c-0.6-0.6-1.8-1.2-1.8-1.8
		c0,0-0.6-0.6-0.6,0c0,0-0.6,0-0.6,0.6s0,0.6,0.6,0.6C18.2,49.6,18.8,49.6,20,50.2z M25.9,37.3c0.6,0,1.8,0,2.4-0.6
		C27,36.8,26.4,36.8,25.9,37.3z M79.3,133c-1.2,1.2-1.2,1.8-1.2,2.9C78.8,135.3,78.8,134.2,79.3,133z M30,32.7
		c1.8,0,2.9-1.2,4.1-1.2c0,0,0,0,0-0.6C32.9,31.5,31.7,32.1,30,32.7z M88.2,29.2c0.6,0.6,1.2,1.2,1.2,0.6c0.6-0.6,1.2-0.6,1.2-1.2
		c0.6,0,1.2,0,1.2-0.6C90.5,28.6,89.3,28.6,88.2,29.2z M166.9,93.9c0-1.2,0-1.8,0-2.9c0,0,0-0.6-0.6-0.6c-0.6,0,0,0.6,0,0.6
		C166.3,92.2,166.3,92.8,166.9,93.9z M101.7,27.4c-1.2,0.6-2.9,0-4.1,1.2C99.3,28.6,100.5,28.6,101.7,27.4z M57.6,65.9
		c0,1.2,0.6,2.3,1.2,2.9C58.2,67.7,58.2,67.1,57.6,65.9z M165.2,127.8c0-1.2-0.6-2.3-1.2-2.9C164,125.4,164,126.6,165.2,127.8z
		 M54.1,47.3c1.2-0.6,2.4-1.2,2.9-1.2c0,0,0.6,0,0-0.6c0,0-0.6-0.6-0.6,0C55.8,46.1,54.7,46.1,54.1,47.3z M196.9,126.6
		c-0.6-0.6-1.2-0.6-2.4-0.6c-0.6,0-0.6,1.2,0,1.2C195.1,127.8,196.3,127.2,196.9,126.6z M152.8,21c0,1.2,1.2,1.8,1.8,2.9h0.6v-0.6
		C154,22.2,153.4,21.6,152.8,21z M56.4,18.1c-0.6,0-1.2,0-1.2,0.6v0.6h0.6C57,18.7,57,18.7,56.4,18.1c0.6,0.6,1.2,0.6,1.2,0
		C57.6,17.5,57,18.1,56.4,18.1z M16.5,49c-1.2-0.6-2.4-0.6-4.1,0C14.1,49.6,15.3,49,16.5,49z M69.4,36.2c0.6,0,1.2,0.6,1.8,0.6
		c0.6,0,0.6-0.6,1.2-1.8C70.5,35.6,69.9,35.6,69.4,36.2z M127.5,18.1c0.6,0,1.2,0.6,1.2,0c0.6-0.6,0.6-0.6,1.2-0.6
		c0.6,0,1.2,0.6,1.2,0C129.3,17.5,129.3,17.5,127.5,18.1z M114.6,138.8c1.2-0.6,2.4-1.2,2.9-1.8c0,0,0.6-0.6,0-0.6H117
		C116.4,137.1,115.2,137.7,114.6,138.8z M83.5,22.8c0.6,0,1.2-0.6,1.8-1.2c0-0.6-0.6,0-0.6,0C84,21.6,83.5,22.2,83.5,22.8
		C82.3,23.3,82.9,22.8,83.5,22.8z M41.7,35.6c1.2,0,1.2-0.6,1.2-1.8c0,0-0.6-0.6-0.6,0C41.7,34.4,41.1,35,41.7,35.6z M158.7,126
		C159.3,125.4,159.3,125.4,158.7,126c-0.6-1.8-1.2-3.5-1.8-4.7c0,0,0,0-0.6,0C157.5,122.5,158.1,124.3,158.7,126z M81.7,111.4
		c0.6,1.2-0.6,2.3,0,4.1C82.3,113.8,81.7,112.6,81.7,111.4z M45.8,12.3c-1.2,0.6-2.4,1.2-3.5,1.2C43.5,14,44.1,14,45.8,12.3z
		 M77.6,95.7c0,1.2,0,2.3,0.6,3.5C78.2,98,78.2,96.3,77.6,95.7z M131.7,131.3c-1.2,0-1.2,1.2-1.8,1.2c0,0-0.6,0.6,0,0.6
		c0,0,0.6,0.6,1.2,0.6s0-0.6,0-0.6C131.7,132.4,131.7,131.8,131.7,131.3z M190.4,121.3c-0.6,1.2,0,2.3,0,3.5
		C191.6,123.7,191,122.5,190.4,121.3z M165.7,128.9c-0.6,1.2-0.6,1.8-0.6,2.9c0,0,0,0.6,0.6,0.6c0,0,0.6,0,0.6-0.6
		C165.7,131.3,166.3,130.1,165.7,128.9z M161.6,93.3c0.6-1.2,1.2-2.3,0.6-3.5C162.2,91,161,92.2,161.6,93.3z M79.3,15.2
		c1.2,0.6,2.4,0,2.9-0.6c0,0,0.6,0,0-0.6c0,0,0,0-0.6,0C81.7,14,80.5,14,79.3,15.2z M122.3,124.3c0.6,1.2,0.6,2.3,1.2,2.9
		C124,125.4,124,124.8,122.3,124.3z M159.3,128.9c0,0.6,0.6,1.2,0.6,1.2s0.6,0.6,0.6,0l0.6-0.6c0-0.6-0.6-0.6-0.6-0.6
		C160.5,129.5,160.5,128.9,159.3,128.9z M111.1,121.9c-0.6-1.8-1.8-2.9-2.4-4.7C109.3,119,109.9,120.8,111.1,121.9z M175.7,88.1
		c0-1.2,0-1.8-0.6-2.3c0,0-0.6-0.6-0.6,0c0,0-0.6,0.6,0,0.6C174.6,86.9,175.1,87.5,175.7,88.1z M103.4,103.8
		c0.6,1.2,1.8,2.3,2.9,3.5C105.8,105.6,104.6,105,103.4,103.8z M131.1,127.2c-0.6,0.6,0,1.2-0.6,1.2c0,0.6,0,0.6,0.6,0.6
		s0.6,0,0.6,0C132.8,128.3,132.2,127.8,131.1,127.2z M83.5,63.6c0-1.2-0.6-2.3-0.6-3.5C82.3,61.3,82.3,63,83.5,63.6z M62.9,40.8
		c1.2-1.2,0.6-2.3,1.2-3.5C62.9,38.5,62.9,39.7,62.9,40.8z M109.9,89.3C109.9,89.8,109.9,89.8,109.9,89.3c1.2,0.6,2.9,1.2,4.1,1.2
		c0,0,0,0,0-0.6c-0.6,0-0.6-1.2-1.8-1.2C111.7,89.8,111.1,89.8,109.9,89.3z M57.6,41.4c-2.4,0.6-4.7,1.8-6.5,2.3c0,0,0,0,0,0.6
		C53.5,43.2,55.8,42.6,57.6,41.4z M90.5,29.8c1.8,0.6,2.9,0,4.1-0.6C93.5,29.2,92.3,29.2,90.5,29.8z M76.4,22.8
		c0.6-0.6,2.4,0.6,2.4-1.2c0,0,0,0,0.6,0c0,0,0.6,0,0.6-0.6c0,0-0.6,0-1.2,0C77.6,21.6,77.6,22.8,76.4,22.8z M85.8,36.8
		c1.2,0.6,2.4-0.6,3.5-0.6c0,0,1.2,0,0.6-0.6c0-0.6-0.6-0.6-1.2,0C88.2,36.8,87,36.2,85.8,36.8z M171.6,70c-1.2-1.2-2.9-1.2-4.1-1.8
		h-0.6v0.6C168.7,69.4,170.4,70,171.6,70z M80.5,140.6c1.2,0,2.4-0.6,3.5-1.2c0.6,0,0.6-0.6,0.6-0.6c0-0.6-0.6,0-0.6,0
		C82.3,138.8,81.7,140,80.5,140.6z M71.7,50.2C72.3,50.2,72.3,50.2,71.7,50.2c0.6-0.6,1.2-1.8,1.8-2.3v-0.6c-0.6,0-0.6,0-0.6,0.6
		C72.3,48.4,72.3,49,71.7,50.2z M68.2,13.4c1.2,1.2,2.4,1.2,3.5,0.6C71.1,12.8,69.4,14,68.2,13.4z M72.3,28.6
		c-1.8,0-2.9,0.6-3.5,1.2C69.9,29.8,71.1,29.8,72.3,28.6z M57.6,93.3c0.6,1.8,0.6,3.5,1.8,5.3C59.4,96.8,58.2,95.1,57.6,93.3z
		 M158.7,112.6c0,1.8,1.2,3.5,2.4,4.7C160.5,116.1,159.3,114.3,158.7,112.6z M196.9,109.1c0,1.2,0.6,2.3,0.6,2.9c0,0,0,0.6,0.6,0.6
		c0.6,0,0.6-0.6,0-0.6C198.1,110.8,197.5,109.7,196.9,109.1z M122.3,131.3c-0.6,0.6,0,0.6,0,1.2c0,0.6,0,1.2,0.6,1.2
		c0.6,0,1.2-0.6,0.6-1.2C124,131.8,123.4,131.3,122.3,131.3z M52.3,44.3c-2.4,0-4.1,0.6-4.7,1.2C50,46.1,51.1,44.9,52.3,44.3z
		 M70.5,12.8c1.8,0.6,3.5,1.8,5.3,0C73.5,13.4,71.7,12.8,70.5,12.8z M50.5,33.3C50.5,32.7,50.5,32.7,50.5,33.3
		c-0.6,1.2-2.9,1.8-1.8,3.5C49.4,35.6,50,34.4,50.5,33.3z M42.3,36.2c-1.8,0.6-3.5,1.8-4.7,2.9C39.4,37.9,41.1,37.9,42.3,36.2z
		 M74.1,65.3c-1.2-2.9-2.4-4.1-3.5-4.7C71.7,62.4,72.9,64.2,74.1,65.3z M136.4,21.6c-1.8-0.6-3.5,0-5.3,0
		C132.8,22.2,134.6,22.2,136.4,21.6z M67,25.1c-0.6,0-1.2-1.2-1.8-0.6c-0.6,0.6-1.2,0.6-1.8,1.2C65.2,26.3,65.8,25.7,67,25.1z
		 M63.5,32.1c-0.6,1.8-1.2,3.5-1.2,5.3c0,0,0,0,0.6,0C63.5,35.6,64.1,33.8,63.5,32.1z M102.3,103.8c0.6,1.2,0.6,2.9,2.4,4.1
		C104,106.2,103.4,105,102.3,103.8z M127,123.1c0.6,1.2,1.8,1.8,2.9,2.3c0,0,0.6,0.6,0.6,0c0-0.6,0-0.6,0-0.6
		C129.3,124.3,128.7,123.7,127,123.1z M192.8,136.5c-0.6,0-0.6,1.2-1.2,0.6c-0.6-1.2-1.2,0-1.2,0c-0.6,0.6-0.6,0.6-1.2,1.2
		C191.6,138.3,192.8,137.1,192.8,136.5z M202.2,136.5c-1.2-1.2-1.8-1.2-2.9-1.8c-0.6-0.6-0.6,0-1.2,0c-0.6,0.6,0,0.6,0.6,0.6
		C199.8,136.5,201,136.5,202.2,136.5z M162.2,99.8c-0.6,1.2-1.2,1.8-1.8,2.9c0,0.6,0.6,0.6,0.6,1.2h0.6
		C161.6,102.7,162.8,101.5,162.2,99.8z M72.9,124.8c0-1.8,0.6-3.5,0-5.3C72.3,121.3,72.3,123.7,72.9,124.8z M51.7,37.3
		c0,0-0.6,1.2,0.6,0.6c0.6,0,0.6-0.6,0.6-1.2v-0.6c0-0.6,0-0.6-0.6-0.6c-0.6,0-0.6,0.6-1.2,0.6C51.7,36.8,51.7,36.8,51.7,37.3z
		 M53.5,30.9c0,1.2,0.6,0.6,1.2,0c0.6,0,1.8-0.6,1.8-1.2s-1.2,0-1.8,0C53.5,29.8,52.9,29.8,53.5,30.9z M194,137.1
		c0.6-1.2,1.2-2.3,1.8-4.1C194,134.2,193.4,135.3,194,137.1z M81.7,89.3c0-2.3-1.2-4.1-2.4-6.4C79.9,85.2,81.1,86.9,81.7,89.3z
		 M95.2,33.3c1.2,0,2.4,0,3.5-0.6c0.6,0,0.6-0.6,1.2,0c0,0.6,0.6,0,0.6,0s0.6-0.6,0-0.6h-0.6c-0.6,0-1.2,0-1.8,0.6
		C97.6,32.7,96.4,32.7,95.2,33.3z M81.1,109.7c0-1.2-0.6-2.9-0.6-4.1c0,0,0-0.6-0.6-0.6h-0.6c-0.6,0,0,0.6,0,0.6
		c0.6,0,0.6,0.6,0.6,1.2C80.5,106.8,81.1,107.9,81.1,109.7z M68.8,127.2c-1.2,1.2-1.8,4.1-1.2,4.7C68.2,131.3,68.8,127.8,68.8,127.2
		z M148.1,23.3c-1.2-1.2-2.9-2.3-5.3-1.8C145.2,21.6,146.9,22.8,148.1,23.3z M35.9,21.6c0.6-0.6,0-1.2,0.6-1.2H37
		c0-0.6,0-0.6-0.6-0.6s-0.6-1.2-1.2-1.2C35.9,19.3,35.3,20.4,35.9,21.6z M161.6,89.3c-1.8,1.8-1.8,2.9-2.4,4.7c0,0,0,0,0.6,0
		C160.5,92.8,161,91,161.6,89.3z M98.7,43.2c-0.6-0.6-1.2-1.2-1.8-1.8c-0.6-0.6-1.2-0.6-1.8-0.6c-0.6,0-0.6,0,0,0.6
		C95.8,42,97,42.6,98.7,43.2z M64.1,16.3c0-0.6,0.6-1.2,0-1.2c-1.2-0.6-1.8-1.2-2.9-1.2h-0.6c0,0,0,0.6,0.6,0.6
		C61.7,15.2,62.9,15.8,64.1,16.3z M95.2,40.3c-1.8-0.6-2.9-1.8-4.7-1.8C91.7,39.7,92.9,40.8,95.2,40.3z M152.8,93.3
		c0.6,0,0.6,0,1.2-0.6c0-0.6,0.6-1.2,0.6-1.8c0,0,0.6-0.6,0-0.6c-0.6,0-0.6,0-0.6,0C153.4,91,152.8,92.2,152.8,93.3
		C152.8,93.3,152.2,93.3,152.8,93.3z M191,111.4c-0.6-1.8-1.2-2.9-2.4-4.7C189.3,108.5,188.7,110.3,191,111.4z M190.4,90.4
		c0-0.6-2.9-1.8-3.5-1.2c-0.6,0-0.6,0.6,0,0.6c0.6,0.6,1.8,0.6,2.4,1.2C189.8,91,190.4,90.4,190.4,90.4z M74.1,130.1
		c-0.6,2.3-1.8,4.1-2.4,6.4c0,0-0.6,0.6,0,0.6c0.6,0,0.6,0,0.6-0.6c0.6-1.8,1.2-4.1,2.4-5.8C74.6,130.1,74.6,130.1,74.1,130.1z
		 M86.4,54.3c-0.6,0.6-1.8,0.6-1.2,1.8c0.6,1.2,0.6,2.3,1.8,3.5C86.4,57.8,86.4,56,86.4,54.3z M74.6,120.2c0,0.6-0.6,1.2-1.2,1.8
		c-0.6,1.2,0.6,1.2,1.2,1.8C75.2,123.1,75.8,121.3,74.6,120.2z M163.4,114.9c-0.6-1.8-0.6-4.1-2.4-5.3c0,0,0,0-0.6,0L163.4,114.9z
		 M200.4,109.7c0.6,1.2,0.6,2.9,1.2,4.1c0,0,0,0.6,0.6,0.6c0.6,0,0.6-0.6,0-0.6C201.6,112,201.6,110.8,200.4,109.7z M31.2,26.8
		c-2.4,1.2-4.1,2.9-6.5,4.1c0,0-0.6,0-0.6,0.6c0,0.6,0.6,0,0.6,0c1.8-1.2,3.5-1.8,4.7-2.9C30,28,30.6,28,31.2,26.8z M68.8,51.9
		C68.2,51.9,68.2,52.5,68.8,51.9c0.6,1.2,1.2,1.8,1.8,2.3c0,0,0.6,0.6,0.6,0s0-0.6,0-1.2l-0.6-0.6C69.9,53.1,69.4,53.1,68.8,51.9
		C68.8,51.9,69.4,51.9,68.8,51.9z M71.1,106.2c0,2.9,0.6,5.3,1.8,8.2c0,0,0,0,0.6,0C72.3,111.4,71.7,108.5,71.1,106.2z M71.1,122.5
		c0.6-2.3,0.6-4.7,0-7C71.1,117.8,71.1,120.2,71.1,122.5z M149.3,135.9c-2.4,0.6-4.1,2.9-4.1,5.3
		C146.3,138.8,147.5,137.1,149.3,135.9z M55.2,17.5c1.2-1.8,2.4-3.5,2.4-5.8C56.4,13.4,55.8,15.8,55.2,17.5z M75.2,106.2
		c0,2.9,0,5.3,1.2,7.6C76.4,111.4,75.8,109.1,75.2,106.2z M75.2,109.7c-0.6,0.6,0,1.2,0,2.3c0,0,0.6,0.6,0,0.6c-1.2,1.2,0,1.8,0,2.9
		C76.4,113.2,75.2,111.4,75.2,109.7z M84,17.5c-2.4,0.6-0.6,2.3-1.8,2.9C84,20.4,84.6,19.8,84,17.5z M164,67.1c1.2-2.3,1.2-4.7,0-7
		C164,63,164.6,64.8,164,67.1z M127.5,134.8c-0.6-0.6-1.2-0.6-1.8-0.6c-0.6,0.6-1.8,0.6-2.4,1.2c0,0-0.6,0.6-1.2,0
		c0,0-0.6-0.6-0.6,0v0.6h0.6C124,135.9,125.8,135.3,127.5,134.8z M88.2,78.2C88.2,78.2,88.7,78.2,88.2,78.2
		c-1.8-1.8-3.5-3.5-5.3-5.3C84,75.3,86.4,76.4,88.2,78.2z M159.9,96.8C159.9,96.8,159.3,97.4,159.9,96.8c-0.6,1.8-1.2,2.9-1.8,4.1
		v0.6c0,0.6,0,0.6,0.6,0.6c0.6,0,0.6-0.6,0.6-0.6C159.9,100.3,159.9,98.6,159.9,96.8z M97.6,23.3c-1.2-0.6-1.8-0.6-2.4,0
		c0,0.6-0.6,0.6-1.2,0.6c-1.2-0.6-1.8,0.6-2.9,0.6C93.5,24.5,95.2,24.5,97.6,23.3z M118.7,126c0.6-1.2-1.8-3.5-4.1-4.1
		C115.8,123.1,117,124.3,118.7,126z M84.6,62.4c0-3.5,0-5.8-1.2-6.4C83.5,58.3,83.5,60.7,84.6,62.4z M82.9,23.9
		c-1.2-0.6-5.3,0.6-5.9,1.2c0,0,0,0,0,0.6h0.6C79.3,25.1,81.1,24.5,82.9,23.9z M115.8,112.6c-1.8-1.8-3.5-3.5-5.3-5.3
		C111.7,109.1,113.4,111.4,115.8,112.6z M72.3,145.8c1.8-0.6,2.9-2.3,5.3-2.9v-0.6c0-0.6-0.6,0-0.6,0
		C75.2,142.9,73.5,144.7,72.3,145.8z M205.1,130.7c-0.6,0.6-1.8,0-1.8,1.2c0,0.6,0.6,1.2,1.8,1.2c0,0,1.2-1.8,1.2-2.3
		C205.7,130.1,205.1,130.7,205.1,130.7z M63.5,44.9c0,0.6-1.2,1.8,0.6,1.8c0.6,0,0,0.6-0.6,1.2c-0.6,0.6-1.8,1.2-2.9,1.8
		c1.2-0.6,1.8-1.2,2.9-1.2c0.6,0,1.2-1.2,0.6-1.2C64.7,46.7,64.7,45.5,63.5,44.9z M68.8,114.9c0,1.2-0.6,1.8,0.6,2.9c0,0,0,0,0,0.6
		c-1.2,1.2,0,2.3-0.6,4.1C71.1,119.6,68.8,117.3,68.8,114.9z M182.8,139.4c1.8-0.6,2.9-1.8,4.7-2.3c1.8-0.6,1.8-1.8,1.2-3.5
		c0,0.6-0.6,0.6-0.6,1.2c0,0,0.6,0.6,0,0.6c-1.8,0.6-2.9,2.3-4.7,2.9C183.4,138.8,182.8,138.8,182.8,139.4z M54.7,50.8
		c-1.8-1.2-3.5,0-5.9,0c1.2,0.6,2.4,0.6,2.9,0.6C53.5,51.3,54.1,51.9,54.7,50.8z M59.4,14.6L58.8,14c-0.6,0-0.6,0.6-0.6,0.6v0.6
		c0,0.6-0.6,0.6,0,1.2c0.6,0,1.2,0.6,1.2,0.6c0.6,0,0-0.6,0-1.2S59.4,15.2,59.4,14.6z M169.3,58.3c-1.2,0.6-2.4,0.6-2.9,1.2
		c0,0.6-0.6,1.8,0,2.3c0,0.6,0,1.2,0.6,1.2c0.6,0,0.6-0.6,0.6-1.2v-0.6c-1.2-0.6-0.6-1.2,0-1.8C168.1,59.5,168.7,58.9,169.3,58.3z
		 M64.7,17.5c-1.2-0.6-2.4-1.2-3.5-2.3c0,0-0.6-0.6-0.6,0c0,0.6,0,1.8,1.2,1.8C62.3,17.5,63.5,17.5,64.7,17.5z M78.8,74.1
		c1.2,2.9,2.9,5.8,4.1,8.8C82.3,79.9,80.5,77,78.8,74.1z M199.8,132.4c0.6,0,1.8,0.6,1.8,0.6c0.6,1.2,1.8,0.6,2.4,1.2h0.6v-0.6
		c-1.2-1.2-2.4-2.3-4.1-1.2C200.4,132.4,200.4,132.4,199.8,132.4z M78.2,40.8c1.2,1.8,2.4,2.3,3.5,2.3c0.6,0,1.2,0.6,1.2,1.2
		c0.6,0.6,0.6,0.6,1.2,0C82.9,43.2,81.1,42,78.2,40.8z M136.4,90.4c0,0.6,0.6,1.2,0.6,1.2c0.6,0.6,1.2,1.2,1.2,1.8
		c0.6,1.8,0.6,1.8,2.4,0.6C139.3,92.8,138.7,91,136.4,90.4z M45.3,30.9c0,0.6,0.6,0.6,0,1.2c-1.2,0.6-0.6,0.6,0,0.6
		c0,0.6,0.6,0.6,1.2,1.2l0.6,0.6c0.6-0.6,0.6-1.2,0.6-1.8c-1.2-0.6-1.2-1.2-0.6-1.7c0,0,0,0-0.6,0C45.8,30.3,45.8,30.3,45.3,30.9z
		 M68.2,22.2c-2.4,0-4.7,0.6-7.1,2.3C63.5,23.9,65.8,22.8,68.2,22.2z M94,86.3c1.8,1.8,4.1,2.9,7.1,3.5C99.3,88.1,96.4,87.5,94,86.3
		z M38.2,40.3c-1.8-0.6-3.5,0-5.3,0c-0.6,0.6-1.2,0.6-1.2,1.2c0,0.6,0.6,1.2,1.2,0.6c0.6,0,0.6,0,1.2-0.6c0-0.6,0.6-0.6,0.6-0.6
		C35.9,41.4,37,40.8,38.2,40.3z M127,96.3c0-1.8-0.6-2.3-1.8-2.9c-1.2-0.6-2.4-0.6-3.5-1.2C123.4,93.3,125.2,94.5,127,96.3z
		 M67.6,142.3c-2.4-0.6-5.3,0.6-7.1,2.3C62.9,143.5,65.2,142.9,67.6,142.3z M67,28c0.6,0,0.6-0.6,0.6-0.6c1.8,0,2.4-0.6,4.1-1.8
		c0,0,0.6,0,0.6-0.6h-0.6c-1.2,0-1.8,0.6-2.9,0.6C67.6,26.3,67,26.8,67,28z M185.1,107.3c0.6-1.2-1.8-5.8-3.5-7
		C182.8,102.7,184,104.4,185.1,107.3z M85.8,23.9c-0.6,0.6-1.2,1.8-1.2,2.3s0,0.6,0.6,0.6c0.6,0.6,1.2,0.6,1.8,1.2h0.6
		c0.6-0.6,0-1.2,0-1.8s-0.6,0-0.6,0c-1.2,0-0.6-0.6-0.6-1.2C85.8,25.1,86.4,25.1,85.8,23.9C86.4,23.9,86.4,24.5,85.8,23.9z
		 M192.8,138.3c-0.6,0-1.2,0-1.8,0.6c-1.8,0.6-2.9,1.2-4.1,2.3c0,0-0.6,0.6,0,0.6h0.6C189.3,140.6,191,139.4,192.8,138.3z
		 M125.8,123.7c-0.6-0.6-0.6-1.2,1.2-1.8c-1.8-1.2-2.9-2.3-4.1-2.9C123.4,120.8,124.6,122.5,125.8,123.7z M51.7,29.8
		c-0.6,0-1.2-0.6-1.8,0c-1.2,1.2-1.8,2.9-2.4,4.7C49.4,33.3,50.5,31.5,51.7,29.8z M47,37.9c0,0.6,0.6,1.2,0.6,1.8
		c0,0,0.6,0.6,1.2,0.6c1.2-0.6,2.4-1.8,1.8-3.5c0,0.6-1.2,0.6-1.2,1.2c0,1.2-0.6,0.6-1.2,0.6C47.6,38.5,47.6,37.9,47,37.9z
		 M88.7,22.8c0.6,0,1.8,0,0.6,1.2c-0.6,0.6,0,0.6,0.6,0.6c1.2,0,1.8-0.6,2.4-0.6c0.6,0-0.6-0.6,0-1.2c0,0,0.6,0,0-0.6h-0.6
		c-0.6,0-0.6,0.6-1.2,0.6C89.9,21,89.9,22.8,88.7,22.8z M78.2,18.1c-2.9-0.6-5.3,1.2-7.6,1.8C72.9,19.8,77,18.7,78.2,18.1z
		 M25.9,47.8c0-0.6-0.6-0.6-0.6-1.2c0,0-0.6-0.6,0-0.6c0.6,0,0.6,0,0.6,0.6c0.6,0.6,0.6,1.8,1.8,1.8v-0.6c-1.2-1.8-2.4-2.9-4.7-2.3
		c-0.6,0-1.2,0-1.8,0h0.6c1.2,0,2.9-0.6,2.4,1.2c0,0.6,0.6,0.6,1.2,0.6C24.7,47.8,25.3,47.8,25.9,47.8z M78.2,124.3
		c0.6-0.6-0.6-2.3,1.2-2.9c-1.2,0,0-1.2-0.6-1.8c-0.6,0-1.2,0-1.2,1.2c0,0.6,0,1.8-0.6,2.3c0,1.2-0.6,2.3-0.6,4.1
		c1.2-1.2,0.6-2.3,1.2-3.5C78.2,123.7,77.6,124.3,78.2,124.3z M174.6,63.6c-1.8,0.6-3.5,0.6-5.9,1.2c-0.6,0-0.6,0.6-0.6,1.2
		c0,0.6,0.6,0.6,1.2,0.6C171,65.3,172.8,64.8,174.6,63.6z M28.2,38.5c1.8,0,3.5,0.6,5.3,0c1.2,0,1.8-1.2,2.9-1.8
		c-1.2,0-2.4,0.6-2.9,1.2c-0.6,0-1.2,1.2-1.8,0.6C30.6,37.9,29.4,38.5,28.2,38.5z M169.3,89.3c0.6,0.6,0.6,1.8,1.8,2.3
		c1.8,1.2,3.5,2.3,4.7,3.5c0.6,0.6,1.2,0.6,1.8,1.2C175.1,93.3,172.2,91,169.3,89.3z M176.9,87.5c1.2,2.3,4.1,2.9,5.9,4.7
		C182.2,90.4,180.4,88.7,176.9,87.5z M81.7,75.3C81.7,74.7,81.7,74.7,81.7,75.3c-1.2-1.8-2.4-3.5-4.1-5.8c-0.6,0.6,0,1.2,0,1.2
		c0.6,0.6,0.6,0.6,0.6,1.2s-0.6,1.8,1.2,1.2C79.9,74.7,81.1,74.1,81.7,75.3z M64.1,95.7c1.8,5.3,2.4,11.1,4.1,16.3
		C67,106.8,65.8,100.9,64.1,95.7z M89.3,78.2c0.6-0.6,0-1.2-0.6-1.8c-1.8-1.8-4.1-2.9-5.9-4.7c-0.6-0.6-1.2-1.2-1.8-1.8h-0.6v0.6
		c0.6,0.6,1.2,1.2,1.8,1.8C85.2,74.1,87.6,75.8,89.3,78.2z M112.3,116.7c2.4,2.3,4.7,5.8,7.6,8.2c0-1.2-0.6-1.8-0.6-2.3
		c-1.8-1.8-4.1-2.9-5.3-5.3C113.4,117.3,112.8,116.7,112.3,116.7z M125.8,119.6c0,1.8,5.3,5.8,7.6,5.8
		C130.5,123.1,128.1,121.3,125.8,119.6z M71.7,43.2c1.2-2.9,1.2-5.8,2.4-8.2v-0.6c-0.6,0-0.6,0-0.6,0.6c-0.6,1.2-0.6,2.3-1.2,2.9
		v0.6c0.6,0.6,0,0.6,0,1.2C71.7,41.4,71.1,42,71.7,43.2z M161.6,134.2c-2.4,1.2-4.7,2.3-5.3,5.8
		C158.7,138.3,159.9,135.9,161.6,134.2z M198.7,130.1c-1.2,0-2.4,0-4.1,0c-0.6,0-0.6,0-0.6,0.6c0,0.6,0,1.8,0,2.3v0.6h0.6
		C195.1,131.8,196.3,130.7,198.7,130.1C198.7,130.7,198.7,130.7,198.7,130.1z M54.1,14.6C54.1,14.6,54.7,14.6,54.1,14.6
		c0-1.2,1.2-0.6,1.8-1.2c0.6-1.8,0.6-2.9,0.6-4.7V8.2h-0.6c-0.6,0.6-0.6,1.2-1.2,1.8C54.7,11.1,54.1,12.8,54.1,14.6z M57.6,92.2
		c-1.8-5.3-2.9-10.5-4.7-15.8C54.7,81.7,55.2,86.9,57.6,92.2z M105.8,107.9c0.6,3.5,3.5,5.3,5.9,7
		C110.5,112.6,108.1,110.3,105.8,107.9z M129.3,83.4c0,1.2,1.8,1.8,0.6,2.9c0,0,0,0,0,0.6c1.2,1.2,2.4,2.3,3.5,2.9
		c0.6,0,0.6,0.6,1.8,0.6c-1.2-1.2-1.8-2.3-2.9-3.5c-0.6-0.6-0.6-0.6,0.6-1.2C131.1,85.2,131.1,84,129.3,83.4z M85.2,18.7
		c0.6,0,0.6-0.6,0.6-0.6c0.6-0.6,1.2,0,1.2,0c0.6,0,0,0.6,0,0.6c-1.2,0.6-0.6,1.8-0.6,2.3c0.6-0.6,1.2-0.6,1.2-1.2
		c0-1.2,0-1.8,0.6-2.9c0-0.6,0-0.6,0-0.6c-1.2,0-2.4,0-3.5,1.2C84,17.5,85.2,18.1,85.2,18.7z M172.8,85.2c0-0.6-0.6-1.2-0.6-1.2
		c0-1.2-1.2-1.2-1.8-1.2c-1.2,0.6-1.8-0.6-2.9-0.6c0,1.2,1.2,2.9,1.8,2.3c1.2-1.2,1.2,0,1.8,0.6C171.6,85.2,171.6,85.8,172.8,85.2z
		 M68.8,32.1c-1.2,0-2.4,0-2.9,0c-0.6,0-0.6,0-0.6,0.6c0,1.2-1.2,2.3,0,3.5c0.6-0.6,0.6-1.2,1.2,0c0,0,0,0.6,0.6,0.6
		c1.2-0.6,2.4-0.6,2.9-1.2c0-0.6-0.6,0-1.2,0c-1.2,0-1.8,0-2.9-0.6c-0.6,0-0.6-0.6-0.6-0.6c0-0.6,0.6-0.6,0.6-0.6
		C67,32.7,67.6,32.7,68.8,32.1z M32.9,15.8c-1.2,0.6-1.2,1.8-1.8,2.3c0,0,0,0,0,0.6c1.2,0.6,0.6,1.8,1.2,2.3
		c0.6,1.2,1.2,2.3,2.4,2.9c0.6,0,0.6,0,0.6,0c0-0.6,0-0.6-0.6-1.2l-0.6-0.6c-1.2,0-1.2-0.6-1.2-1.8c0-0.6-1.2-1.8-0.6-2.3
		C34.1,17.5,32.9,16.9,32.9,15.8z M67.6,14.6c0-0.6-0.6-0.6-0.6-1.2c-0.6-0.6-1.8-1.2-2.9-1.2c-2.4-1.2-4.1-2.3-5.9-2.9
		c-0.6,0-0.6-0.6-1.2,0c0,0.6,0,0.6,0.6,1.2c1.2-0.6,2.4,0.6,3.5,1.2C62.9,12.8,65.2,14,67.6,14.6z M167.5,133
		c-1.8,0-2.9,0.6-2.9,2.9c0,1.8-1.2,2.9-1.2,4.1C165.7,138.3,165.7,135.3,167.5,133z M124.6,125.4c0,0.6,0,1.2,0.6,1.8
		c0,0.6,0.6,1.2,1.2,1.2c0.6,0,0.6-0.6,0.6-0.6s0,0,0.6-0.6c0,0,0-0.6,0.6-0.6c0.6,0,0,0.6,0,0.6c0,0.6-0.6,0.6,0.6,1.2
		c0.6,0,1.2,0,1.2-0.6c0-0.6,1.2-1.2,0-1.8c-1.2,0-2.4-0.6-2.9-1.8c0,0.6,1.2,1.2,0.6,1.8C125.8,127.2,125.2,126,124.6,125.4z
		 M164,86.9c-1.2,4.1-1.8,8.2-2.9,12.3c1.2-1.2,1.8-2.9,1.8-4.1c0-1.8,0.6-3.5,1.8-5.3c0,0,0,0,0-0.6c0-1.2,0-1.2,1.2-1.2
		C165.2,88.1,165.2,87.5,164,86.9z M67,145.3c1.8,0,2.9-1.2,4.7-1.8c1.8-0.6,2.9-1.2,4.7-1.8c0,0,0.6,0,0.6-0.6c0,0,0-0.6-0.6-0.6
		c-0.6,0-1.2,0-1.8,0.6c0,0,0,0.6-0.6,0.6c-1.2,0-1.8,0-2.4,0.6C69.9,142.9,68.2,143.5,67,145.3z M178.7,140
		c2.4-0.6,4.1-1.8,5.9-2.9c0,0,0.6,0,0-0.6H184c-2.9,0.6-4.7,1.8-7.1,2.9v0.6h0.6C178.1,140,178.7,140,178.7,140z M65.8,95.1
		C65.2,95.1,65.2,95.1,65.8,95.1c1.2,5.8,2.9,11.7,4.7,16.9c0,0,0,0,0.6,0C69.4,106.2,67.6,100.9,65.8,95.1z M166.3,105
		c0.6-1.2,0-1.8,0-2.9c0-0.6-0.6-1.8-0.6-2.3c0.6-1.2-0.6-2.3-0.6-3.5c0,0,0-0.6-0.6-0.6c-0.6,0-0.6,0.6,0,0.6c0,0.6,0.6,1.8,0,1.8
		c-0.6,0.6,0,1.2,0,1.8C164.6,101.5,165.7,103.3,166.3,105z M92.9,84c0.6,1.2,1.2,1.2,1.8,1.8c2.9,1.2,5.9,2.3,8.8,3.5
		c1.2,0.6,1.2,0.6,2.4,0C102.3,87.5,97,86.3,92.9,84z M156.3,135.3c-2.4-1.2-2.9-1.2-3.5,0c-0.6,0.6-1.2,1.8-1.2,2.3
		c-0.6,1.2-1.2,1.8-1.2,2.9C152.2,138.8,154.6,137.1,156.3,135.3z M27.6,42.6C27,42.6,27,42,26.4,42c0,0-0.6,0-0.6-0.6
		c0-0.6,0.6,0,0.6,0c1.2,0,1.8,1.2,2.9,1.8c0.6,0,0.6,0,1.2,0c0,0,0.6,0,0.6-0.6c0-0.6-0.6-1.2-0.6-0.6c-0.6,0-1.2-0.6-2.4-1.2
		c-0.6-0.6-1.8,0-1.8-1.8c-0.6-0.6-0.6,0.6-1.2,0.6c-0.6-0.6,0.6-0.6,0-1.2c0,0,0,0-0.6-0.6c0,0.6-0.6,0.6-0.6,1.2
		c0,0-0.6,0.6,0,1.2c0,0.6,0.6,0,1.2,0c1.2,0,1.8,0.6,1.2,1.2c0,0.6-0.6,0.6,0,1.2C26.4,42.6,27,43.2,27.6,42.6z M177.5,93.3
		c-2.9-2.9-6.5-5.8-9.4-8.8C169.9,88.7,173.4,91,177.5,93.3z M198.1,137.7c-3.5,1.2-5.9,2.3-7.6,4.7c0,0.6-0.6,0.6-0.6,1.2
		c0.6,0.6,0.6,0,1.2,0c0,0,0.6,0,0.6-0.6c1.8-1.2,3.5-2.9,5.9-4.1C197.5,138.8,198.1,138.3,198.1,137.7z M189.3,114.3
		c0.6,1.8,0.6,3.5,1.8,4.7c0.6,1.2,1.2,1.8,1.2,2.9c0,0.6,0,1.8,0,2.3v0.6c0.6,0,0.6,0,0.6-0.6c0-1.2,0-1.8,0-2.9
		c0-0.6,0.6-1.2,0.6-1.8c-0.6-0.6-0.6-1.8-0.6-2.3s0-1.8-1.2-0.6c-0.6,0-0.6,0-0.6-0.6C190.4,115.5,189.8,114.9,189.3,114.3z
		 M105.8,110.8c0,0.6,0,1.8,1.2,1.8c0.6,0,0.6,0,0.6,0.6c0,0.6,0.6,1.2,0.6,1.2c1.2,1.8,3.5,2.9,4.1,4.7c0,0,0,0.6,0.6,0.6
		c0.6,1.2,1.8,1.2,2.9,1.8C112.3,117.8,109.9,113.8,105.8,110.8z M54.7,18.7c-1.8,0-3.5,1.2-4.7,1.8c-1.2,0.6-1.8,1.2-2.9,1.2
		c-0.6,0-1.2,0-1.2,1.2c0,0.6,1.8,1.2,2.9,0.6v-0.6c-0.6-0.6,0-0.6,0-0.6c0.6,0,0.6,0,0.6,0.6c1.2,0,1.8,0.6,2.9,0.6
		c-0.6-1.2-1.8-0.6-2.4-1.8c0.6-0.6,0.6,0,1.2,0c0,0,0.6,0.6,1.2,0V21c-0.6-0.6,0-0.6,0.6-0.6C52.9,19.8,53.5,19.3,54.7,18.7z
		 M197.5,81.7c0.6,1.2,0.6,2.9,1.8,4.7c0,0.6,0,1.2,0.6,0.6c0.6,0,1.2-0.6,1.2-1.2s-0.6-1.2,0-1.8c0.6-1.8-1.2-2.9-2.4-3.5
		c0,0-0.6-0.6-0.6,0c-0.6,0,0,0.6,0,0.6C196.9,81.1,197.5,81.1,197.5,81.7z M34.7,25.7c-0.6,0-1.2,0.6-1.2,0.6
		c-2.9,1.8-5.9,4.7-9.4,5.8c0,0-0.6,0-0.6,0.6c0,0,0,0.6,0,0c0.6-0.6,1.2,0,1.8-0.6c0.6-0.6,1.8-1.2,2.9-1.8c2.4,0,4.1-1.2,5.9-1.8
		V28C32.9,27.4,34.7,26.8,34.7,25.7z M193.4,90.4c1.2-0.6,2.4-1.2,3.5-1.8v-0.6c-1.2-1.8-2.9-2.9-4.7-4.7c0,1.8,0.6,3.5,1.2,5.3
		c0.6-0.6,0.6-0.6,1.2-1.2c0,0,0.6-0.6,0.6,0v0.6c0,0.6-0.6,0.6-0.6,1.2c0.6,0,1.2-0.6,2.4-0.6C195.1,89.3,194,89.8,193.4,90.4z
		 M203.4,106.2c-0.6,3.5,0,7,0.6,10.5c0-0.6,0.6-1.2,1.2-1.2c0.6,0,0.6-0.6,0.6-0.6C205.1,112,204.5,109.1,203.4,106.2z M101.7,98
		c0,0.6,0,0.6,0,1.2c1.2,1.2,1.8,2.9,2.4,4.1c0.6,1.2,1.8,1.8,2.9,2.3c1.2,0.6,2.4,2.3,2.9,3.5c0,0,0.6,0.6,1.2,0.6v-0.6
		c0,0,0-0.6-0.6-0.6c-1.8-1.8-2.9-3.5-4.1-5.8c0,0,0-0.6-0.6-0.6c-0.6,0-0.6,0-0.6-0.6c-0.6-0.6-0.6-1.2-1.2-1.8l-0.6-0.6
		c-1.2,1.2-1.2,0-1.2-0.6C101.7,98.6,102.3,98,101.7,98z M36.4,26.3c0,1.2-0.6,1.8-1.2,2.3c-2.4,1.2-4.7,2.3-6.5,2.9
		c-1.2,0.6-2.4,1.2-2.4,1.8c-0.6,1.2-1.2,1.8-2.4,1.8c-0.6,0.6-1.2,1.2-0.6,1.8c1.2-0.6,2.4-1.2,2.9-2.3c1.2-1.8,2.9-2.3,4.7-2.9
		c1.8-0.6,2.9-1.2,4.7-1.8c0,0,0.6,0,0.6-0.6c-0.6-0.6,0-1.2,0.6-1.8C36.4,27.4,37,26.8,36.4,26.3z M124,98.6
		c-2.4-1.8-4.7-3.5-6.5-5.8c-1.2-1.2-2.4-1.2-3.5-0.6c-0.6,0-0.6,0.6,0,0.6c0.6,0.6,1.2,1.2,2.4,1.8C118.1,96.8,121.1,98,124,98.6z
		 M68.8,23.3c2.4,0,3.5-1.2,5.3-1.8c1.8-0.6,3.5-1.2,4.7-2.3h0.6c0,0,0.6,0.6,0,0.6c0,0-0.6,0.6,0,0.6s0.6,0,1.2-0.6
		c0.6-0.6,0.6-0.6,0.6-1.2c0-0.6,0-0.6-0.6-0.6c-2.9,0-5.3,1.2-7.1,2.3C72.3,21.6,70.5,22.2,68.8,23.3z M123.4,123.7
		c0-0.6,0-1.2-0.6-1.8c-2.9-2.3-5.9-4.7-8.8-7c0,0-0.6-0.6-0.6,0v0.6c1.8,2.3,4.1,4.1,6.5,5.8c0,0,0.6,0.6,0.6,0
		c0.6-0.6,0.6,0,1.2,0.6C121.1,122.5,122.3,123.1,123.4,123.7z M157.5,88.7c0.6-1.2,1.8-2.3,1.8-3.5c0-1.2,0-2.3,1.2-2.9
		c0,1.2-1.2,2.3-0.6,3.5c0.6-1.2,1.8-2.3,1.2-3.5c0-0.6,0-1.8,0-2.3v-0.6c0.6,0,0.6,0,0.6,0.6v0.6v0.6h0.6c0.6,0,1.2,0,1.2-0.6
		s0-1.2-0.6-1.2c-0.6,0-1.2-0.6-1.2-1.2c0.6-0.6,0-1.8,0.6-2.3c0.6-0.6,0-0.6-0.6-1.2c-0.6,1.8-1.2,3.5-1.8,4.7
		C158.7,82.3,158.1,85.2,157.5,88.7z M57.6,33.8C57.6,33.8,57,33.8,57.6,33.8c-1.8,0.6-1.8,0.6-2.4-0.6c0-0.6-0.6-0.6-0.6,0
		c-1.2,0.6-1.2,1.8,0,2.3c0.6,0.6,1.2,1.2,1.2,1.8c-1.2,0-0.6-1.2-1.8-1.2c0.6,1.2,0,2.3,1.2,3.5c0,1.2-1.8,1.2-2.4,1.8
		c1.8,0,2.9-0.6,4.1-1.2c0,0,0.6-0.6,0.6-1.2C57.6,37.3,57.6,35.6,57.6,33.8z M120.5,116.7c1.2,1.2,1.8,1.8,2.9,1.8
		c1.2,0,1.8,0.6,2.4,0.6c2.4,1.2,4.1,3.5,6.5,5.3c0,0,0.6,0.6,0.6,0c-3.5-2.9-6.5-5.8-10-8.2c-1.2-1.2-2.9-2.3-4.7-2.9
		c-1.2-0.6-2.3-1.2-3.5-2.3c-0.6-0.6-0.6-1.2-1.8-1.2c0.6,1.2,1.8,1.8,2.4,2.9c0.6,1.2,2.4,2.3,3.5,2.3c1.2,0,1.8,0.6,2.4,1.2
		c0,0,0.6,0.6,0,0.6H120.5C121.7,116.7,121.1,116.7,120.5,116.7z M194,95.7c1.2-1.2,1.8-2.3,2.9-2.9c0.6-0.6,1.2-1.8,1.2-2.3v-0.6
		h-0.6c-1.8,1.2-4.1,2.3-6.5,3.5c-2.4,1.8-2.4,1.2-0.6,3.5c0.6,0.6,0.6,0.6,1.2,0c1.2-0.6,1.8-1.8,2.4-2.9c0,0,0-0.6,0.6-0.6
		s0.6,0.6,0,1.2C194.5,95.1,194,95.1,194,95.7z M207.5,114.9c-0.6,0.6-0.6,1.2-1.2,1.2s-0.6,0.6-0.6,0.6c0.6,0.6,0.6,1.8,0.6,2.3
		c0,1.8,1.2,3.5,1.2,5.3c-1.2,0-1.2,0-1.8,1.2c-0.6,1.2,0,2.3,0.6,4.1c0,0,0,0.6,0.6,0.6c0,0,0.6,0,0.6-0.6c1.2-1.8,1.8-4.1,1.8-5.8
		c0,0,0-0.6-0.6-0.6c-1.2-1.2-1.2-2.3-2.4-3.5c0-0.6,0-0.6,0.6-1.2c0.6,1.2,1.2,2.3,2.4,3.5c0.6,0,0.6-0.6,0.6-0.6
		C209.2,119,208.1,117.3,207.5,114.9z M83.5,44.9c-1.8-1.2-3.5-1.8-4.7-2.9c-0.6-0.6-1.2-0.6-1.2-1.2c0-0.6-0.6-0.6-1.2,0
		c-0.6,0.6-1.2,1.2-1.2,2.3c0,0.6,0,1.2,0,1.8c0,1.2,0,2.9,0,4.1c1.8-0.6,3.5-1.2,4.7-2.3l0.6-0.6h-0.6c-0.6,0.6-0.6,0.6-1.2,0
		c-0.6-0.6,0-0.6,0.6-1.2c0.6,0,1.2,0,1.8,0C81.7,45.5,82.3,45.5,83.5,44.9z M81.7,62.4c0.6-0.6,0-0.6,0-0.6c0-1.8-0.6-3.5-0.6-5.3
		V56c0.6,0,0.6,0,0.6,0.6c0.6,0,0.6,0.6,0.6,1.2v-0.6c0.6-1.2-0.6-1.8,0-2.9c0-0.6,0-0.6-0.6-1.2c-0.6,0-0.6,0-0.6,0.6
		c-0.6,0.6-0.6,1.2-1.8,1.2h-0.6v-0.6c0,0,0.6,0,0.6-0.6c0.6-0.6,1.2-1.2,0-1.2c-0.6,0-0.6-0.6,0-0.6c0.6-0.6,1.2-1.2,1.8-1.8
		c-0.6,0-0.6,0-0.6,0c-0.6,0-1.2,0-1.2-0.6c0-0.6,0.6-0.6,1.2-0.6c1.2,0,2.4-0.6,2.9-1.2c0-0.6-1.8,0-0.6-1.2
		c0.6-0.6,1.2-1.2,1.8-1.8c-1.8,0.6-1.8,1.8-3.5,2.9c0-0.6,0.6-0.6,0-1.2c-1.2,0.6-2.9,0.6-2.9,2.3c0,0.6,0.6,1.2,0,1.8
		c-0.6,2.3-0.6,4.7,0.6,7v0.6C80.5,60.1,80.5,61.3,81.7,62.4z M70.5,37.3c-0.6,1.2-1.8,2.3-2.4,3.5c0,0,0,0.6-0.6,0.6
		c-0.6,0-0.6-0.6,0-0.6c0-0.6,0.6-1.2,1.2-1.8c0.6-0.6,1.2-1.2,0.6-1.8c-0.6-0.6-1.2,0-1.8,0c-0.6,0-1.2,0.6-1.2,1.2
		c0,1.2-0.6,2.3-1.2,3.5c-0.6,0.6-1.2,1.8-0.6,1.8c0.6,0.6,0,1.8,1.2,2.9c0.6-1.2,1.8-2.3,1.8-3.5c0.6,0.6,0.6,1.2,0.6,1.8
		c0,0.6-0.6,0.6,0,1.2c1.2,0.6,0.6,1.2,0.6,1.8C69.9,45.5,71.1,40.3,70.5,37.3z M128.1,16.9c-1.2,0-2.4,0-3.5,0.6
		c-1.8,0.6-3.5,1.8-5.9,2.3c0,0-1.2,0-0.6,0.6c0,0.6,1.2,0.6,1.2,0c1.2-1.2,2.4-0.6,3.5-0.6c0.6,0,1.2,0,1.8,0.6c0,0,0.6,0.6,0,0.6
		H124c-0.6-0.6-1.2-0.6-1.8-0.6c-1.2,0-1.8,0-2.9,0c0.6,0.6,1.2,0.6,1.8,1.2c0,0,0.6,0,0.6,0.6c0,0.6-0.6,0-0.6,0
		c-0.6-0.6-1.8-0.6-2.4-0.6c0.6,0.6,1.2,0.6,1.8,1.2c0.6,0,1.2,0.6,1.2,1.2h0.6c1.2-0.6,1.8-0.6,2.9-1.2c0.6-0.6,0.6-0.6,1.8-0.6
		c0.6,0,1.8,0,2.4-0.6c0.6-0.6,0.6-0.6,1.2-0.6c1.8,0.6,2.9,0.6,4.7,0c0,0,0-0.6,0-1.2v-0.6c-1.8,0-2.9-0.6-4.7-0.6s-2.9,0-4.7-0.6
		c-0.6,0-0.6-0.6-0.6-0.6s0-0.6,0.6,0S127.5,17.5,128.1,16.9z M78.2,51.9c-0.6,0-0.6,0.6-1.2,0.6c-0.6,0,0-0.6,0-0.6l0.6-0.6
		c0-0.6,0.6-1.2,0.6-1.8c0-0.6-1.2,0-1.8,0c0,0,0,0-0.6,0c-0.6,0-0.6,0-0.6,0.6c0,0.6,0.6,1.2,0.6,2.3c0.6,0,0.6,0,0,0
		c-0.6,0-0.6,0-0.6-0.6c-0.6-1.2-1.2-2.3-1.8-3.5c-0.6,1.2-0.6,1.8-1.2,2.9c0,0.6,0,0.6,0.6,1.2c1.2,0,1.8,1.2,2.4,1.2
		c0.6,0,0.6,0.6,0.6,0.6c0,0.6-0.6,0-1.2,0c-0.6,0-1.2-0.6-1.8-1.2c0,0-0.6-0.6-0.6,0c0,0.6-0.6,0.6,0,1.2c1.2,0.6,1.8,1.2,2.4,1.8
		c1.2,0.6,2.4,1.2,1.8,2.9c0,0.6,0.6,1.2,0.6,1.8c-0.6,0-0.6-1.2-1.2-1.2c0,2.3,0.6,3.5,1.8,3.5c0-0.6-0.6-1.2-0.6-2.3
		c0.6,1.2,1.2,2.3,1.8,2.9h0.6c-1.2-1.8-0.6-4.1-1.2-6.4C77.6,56.6,77.6,54.3,78.2,51.9z M195.7,117.8c0,1.2,0,1.8,0,2.9
		c-0.6,1.2-0.6,2.9-0.6,4.1c0,0.6,0,0.6,0.6,0.6c2.4-0.6,5.3,0,7.6-0.6c1.2,0,1.8,0.6,1.8,1.2s-0.6,1.8-1.8,1.8
		c-1.2,0.6-1.8,0.6-2.9,0.6c-1.2,0-1.2,0.6-0.6,1.2c0,0.6,0.6,0.6,1.2,0.6c1.2,0,2.9-0.6,4.1-0.6c0.6,0,1.2-0.6,0.6-1.2
		c-0.6-2.3,0-5.2,0-7.6c0-1.2-0.6-2.3-0.6-3.5c0,0,0-1.2-0.6-0.6c0,0-0.6,0.6-0.6,1.2c0.6,1.2,0,2.9,0,4.1c0,0,0,0.6-0.6,0.6
		c-0.6,0-0.6,0-0.6-0.6c0,0,0-0.6-0.6-0.6c-0.6,0-0.6,0.6-1.2,0c0-0.6-0.6-0.6-0.6-1.2c0-0.6,0-0.6-0.6-1.2c0,0.6,0,1.2,0,1.8
		s0,0.6-0.6,0.6c0.6,1.2,0.6,1.2,0.6,0.6c0.6-1.8-0.6-3.5,0.6-4.7c0-0.6,0-1.2-0.6-1.2c-1.2,0,0,0.6-0.6,0.6s-0.6,0.6-0.6,1.2
		c0,1.2,0,1.8,0,2.9c0,0.6,0,0.6-0.6,1.2c-0.6,0-1.2,0-1.2-0.6C196.9,120.2,196.3,119,195.7,117.8z M202.8,85.2
		C203.4,85.2,203.4,85.2,202.8,85.2C203.4,84.6,203.4,84.6,202.8,85.2c-0.6-4.1-1.8-7.6-2.9-11.1c-1.2-2.3-1.2-4.7-3.5-5.8
		c-0.6,0,0-0.6,0-0.6h0.6c0-0.6,0-0.6-0.6-0.6c-2.4,0-4.1-1.2-5.9-1.8c0,0-1.2,0-0.6-0.6c0-0.6,0.6,0,1.2,0c1.8,0.6,2.9,0.6,5.3,1.2
		c-0.6-1.2-1.2-1.8-1.2-2.3c0,0.6-0.6,1.2-1.2,0.6c-1.8-0.6-2.9-0.6-4.1-1.2c-0.6,0-0.6-0.6-0.6-1.2c1.2,1.2,2.9,1.2,4.7,1.8
		c0.6,0,1.2,0,0.6-1.2c-0.6-1.2-1.2-2.3-1.8-4.1s-1.2-4.1-2.9-5.3c-1.2-0.6-1.2-1.2-1.8-1.8c-1.2-1.8-2.4-3.5-4.1-5.3
		c0,0.6,0.6,1.2,0.6,1.2c0.6,1.2,1.8,2.9,2.9,4.1c0,0,0.6,0.6,0,0.6c-0.6,0.6-0.6,0-1.2,0l-0.6-0.6c-1.2-1.2-2.4-2.9-3.5-4.1
		c1.2,1.8,2.4,3.5,4.1,5.3c0,0,0.6,0.6,0,1.2c-0.6,0.6-0.6,0-1.2,0c-1.2-1.2-1.8-2.3-2.9-2.9c-1.2-1.2-2.9-2.9-4.1-4.1v0.6
		c1.2,1.8,2.4,4.1,3.5,5.8c0,0.6,0.6,0.6,0,1.2c-0.6,0.6-1.2,0-1.8,0c-1.2-0.6-2.4-1.8-3.5-2.9c-0.6-0.6-1.2-1.2-1.8-0.6
		s0,1.2,0,1.8v0.6c0,0.6,0.6,1.8,0.6,2.3c0,0.6,0,1.2-0.6,0.6c-1.2-0.6-1.8,0-2.4,0.6c-0.6,0.6-2.4,0.6-2.4,1.8h-0.6
		c-0.6,0.6-1.2,1.2-1.8,1.2l-0.6,0.6c0,0.6,0.6,0,0.6,0h0.6c1.8-0.6,3.5-1.2,5.9-1.8c0.6,0,1.2,0,1.2,0c0,0.6-0.6,0.6-0.6,0.6
		c-1.2,0.6-1.8,1.2-2.9,1.2c-1.2,0-2.4,0.6-3.5,0.6c-0.6,0-0.6,0-0.6,0.6v0.6c0.6,0,0.6,0,1.2,0c1.2-0.6,1.8-0.6,2.9-1.2
		c-1.2,1.2-2.9,1.8-4.1,2.9c1.8-0.6,3.5-0.6,5.3-1.2c0.6-0.6,1.8-0.6,2.9,0c1.2,1.2,2.9,1.8,4.1,1.8c0.6,0,0.6,0,0.6,0.6
		s-0.6,0-0.6,0c-1.2-0.6-2.9-1.2-4.1-1.8c-0.6,0-0.6-0.6-1.2,0c-1.8,1.2-4.1,2.3-6.5,2.9c-0.6,0-1.2,0.6-1.2,1.2
		c0,0.6,0.6,0.6,1.2,0.6c1.8,0,2.9,1.2,4.7,1.8c0,0,0,0,0,0.6h-0.6c-1.2,0.6-1.8,0.6-2.9,0.6c0,0.6,1.2,0,1.2,1.2
		c0,0.6-0.6,0.6-1.2,0.6s-0.6,0-1.2,0.6c0,0.6,0.6,0.6,1.2,0.6c1.2,0.6,2.4,0.6,3.5,1.2c0,0,0.6,0,0.6,0.6s-0.6,0.6-1.2,0h-0.6
		c-1.8-0.6-2.9-1.2-4.7-1.8c-0.6,0-1.2-0.6-1.8,0c0,0.6,0.6,0.6,1.2,0.6c0.6,0,1.8,0.6,2.4,0.6c0.6,0,0.6,0.6,0.6,0.6
		c0,0.6-0.6,0.6-0.6,0c0,0,0,0-0.6,0h-0.6v0.6c0.6,0,1.2,0.6,1.8,0.6c1.2,0.6,2.9,1.2,4.1,1.8c1.8,1.2,3.5,2.9,4.7,4.7
		c0,0,1.2,0.6,0.6,0.6s-0.6,0-0.6-0.6c-0.6-1.2-1.8-2.3-2.9-3.5c-0.6-0.6-1.8-1.8-2.4-1.8c-1.8,0-2.9-1.2-4.7-1.8
		c-0.6,0-1.2-0.6-1.2,0c0,0.6-0.6,1.2,0,1.8c1.2,0.6,2.4,1.2,3.5,1.2c0.6,0,1.2,0.6,1.2,1.2c0.6,1.8,1.8,2.3,3.5,3.5
		c1.2,0.6,1.8,1.2,2.9,1.8c0.6,0.6,1.2,0.6,2.4,1.2h0.6v-0.6c-0.6-1.2-1.2-1.8-1.2-2.9c0,0-0.6-0.6,0-0.6c0.6,0,0.6,0,0.6,0.6
		c0.6,1.2,1.8,2.3,2.4,3.5c-0.6,0-0.6-0.6-0.6-0.6c-0.6,1.8,1.8,0.6,2.4,1.2c-1.2-1.2-0.6-3.5-2.4-4.7c-0.6,0-0.6-0.6,0-1.2
		c1.8,1.2,2.9,2.3,4.7,4.1c-1.2,0-1.2-0.6-1.8-0.6c0.6,0.6,1.2,1.8,1.8,2.3c0.6,0.6,0.6,1.2,1.2,0.6c0,0,0.6,0,1.2,0
		c1.2,0,1.8,0.6,2.9,1.2c0.6,0,0.6,0.6,1.2,0c0.6,0,0.6-0.6,0.6-1.2s-0.6-1.8-0.6-2.3c0-1.2-0.6-2.3-0.6-3.5c0-0.6,0.6-1.2,1.2-0.6
		c1.8,1.2,2.9,2.9,4.7,4.7c0,0,0.6,0.6,1.2,0.6c0.6,0,0.6-0.6,0-1.2c-0.6-1.2-0.6-1.8-1.2-2.9c-0.6-1.2-0.6-2.3-0.6-3.5
		c0-0.6,0.6-0.6,0.6-1.2c-1.2-1.2-1.2-3.5-2.9-4.7l-0.6-0.6c0,0,0,0,0.6,0c0.6,0,0.6,0,0.6,0.6c0.6,1.2,1.2,2.3,2.4,3.5
		c1.2,1.2,1.2,2.9,2.9,3.5c1.2,0.6,1.2,1.2,1.8,2.3C202.2,83.4,202.8,84.6,202.8,85.2z M165.2,23.3c-0.6-0.6-1.2-1.2-2.4-1.8
		c-2.9-2.3-5.9-3.5-9.4-4.7c-2.9-1.2-5.9-1.2-9.4-1.2h-0.6c-1.2,0.6-2.9,0-4.1,0c-2.9-0.6-5.9-1.2-8.8,0.6c1.8,0,4.1,0,5.9,0
		c-2.4,0.6-4.7,0.6-7.1,0.6c0,0,0,0.6,0.6,0.6c2.9,0,5.9,0.6,8.8-1.2h0.6v0.6c0,0-0.6,0-0.6,0.6c-1.8,0-3.5,0-5.3,0
		c-0.6,0-0.6,0-0.6,0c0,0.6,0.6,0,0.6,0.6c0.6,0,1.8,0,2.4,0c2.4,0,4.7,0,7.1,0.6c0.6,0,1.2,0,1.2,0.6v0.6c0.6,0,0.6,0,0.6-0.6
		s0.6-0.6,0.6-0.6c1.2,0.6,2.4,0.6,3.5,1.2c1.2,0.6,2.4,1.2,3.5,1.8c-0.6-1.2-1.2-1.8-1.8-2.9c0,0-0.6-0.6,0-0.6h0.6
		c0.6,0,1.2,0.6,1.8,1.2c1.2,1.2,2.4,2.9,4.1,4.1l0.6,0.6c-0.6,0-1.2,1.2-1.8,0.6c-1.8-1.8-4.1-2.9-6.5-4.1
		c-1.2-0.6-1.8-1.2-2.9-1.2c0.6,0.6,1.2,0.6,1.8,1.2c1.2,1.8,3.5,2.3,4.7,3.5c0.6,0.6,1.2,0.6,0.6,1.2c-0.6,0.6-1.2,0-1.2,0
		c-1.8-0.6-3.5-1.8-5.3-2.3c-0.6,0-0.6-0.6-1.2,0c-0.6,0.6-0.6,0.6,0,0.6c1.8,0.6,4.1,1.8,5.9,2.3c0.6,0,0.6,0,0.6,0.6
		s-0.6,0.6-1.2,0c-1.2-0.6-2.9-1.2-4.1-1.8c0,0-0.6-0.6-1.2,0c-1.8,1.2-3.5,0-5.3,0.6c-0.6-1.2-1.8,0-2.4-0.6c0,0,0,0,0.6,0
		c1.2,0,2.4,0.6,3.5,0.6c0.6,0,0.6,0,0.6,0.6c0,0.6-0.6,0.6-0.6,0.6c-2.9,1.8-5.3,0.6-7.6,0c0,0-0.6,0,0-0.6c0,0,0-0.6,0.6,0
		c0.6,0.6,1.8,0.6,2.4,0.6c1.2,0,2.9,0.6,4.7-0.6c-2.4-0.6-4.1-1.8-6.5-1.2c-0.6,0-1.8,0-2.4-0.6c0,0-0.6-0.6-0.6,0
		c0,0.6,0.6,0.6,0.6,0.6c0.6,0,1.2,0,1.2,0.6c0,0.6-1.2,0.6-1.8,0.6c-3.5-0.6-6.5,0.6-10,1.2c1.8,0.6,3.5,0.6,5.3,0.6
		c0.6,0,0.6,0,0.6,0c-0.6,1.8-0.6,1.8-1.2,1.8c-0.6,0-1.8,0-2.4,0c-1.8,0-4.1,0.6-5.9,0.6c0,0-0.6,0-0.6,0.6c0,0-0.6,0.6-0.6,0
		c-0.6,0,0-0.6,0-0.6c0-0.6,0.6-0.6,1.2-0.6c1.2,0,2.4,0,2.9-0.6c-0.6,0-1.2-0.6-2.4-0.6c-0.6,0-0.6,0-0.6-0.6c0-0.6,0-0.6,0.6-0.6
		c0.6,0,0.6,0,1.2,0c1.2,0,2.9-0.6,4.7-0.6c-1.2-0.6-1.8-0.6-2.4-0.6c-1.2,0-2.4,0-3.5,0h-0.6c0,0,0-0.6,0.6-0.6
		c0.6-0.6,1.8-0.6,2.4-0.6h0.6c-0.6,0.6,0,0.6,0.6,0.6c1.2,0,2.4,0,4.1,0.6c1.8,0.6,2.9,0,4.7-1.2c-1.2-0.6-2.4,0-3.5-0.6
		c2.9,0.6,5.9-0.6,8.8-0.6c-0.6,1.2-1.8,0.6-2.4,1.2c1.2,0,1.8,0.6,2.9-0.6h0.6c1.2,0,2.9,0,4.1,0.6c1.2,0.6,2.4,0.6,4.1,0
		c-1.8-1.2-3.5-1.2-5.3-2.3c1.2,0,2.4-0.6,1.8-1.2c0-0.6-1.2-0.6-1.8,0c-1.2,0.6,0,0.6,0,1.2c-0.6,0.6-0.6,0-1.2,0
		c-2.4-0.6-4.1,0-5.9,0.6c-3.5,0.6-4.7,0.6-6.5,1.2c-0.6,0-1.2,0-1.2,0c0-0.6,0.6-0.6,1.2-0.6c1.2,0,2.4,0,3.5-0.6
		c-0.6,0-0.6-0.6-0.6-0.6c-0.6-1.2-1.2-0.6-1.8-0.6c-0.6,0-1.2,0.6-1.8,0.6c-2.9,1.8-2.9,1.8-6.5,1.2c0,0.6-0.6,0-1.2,0
		c-1.2-0.6-1.8-1.2-3.5-1.8c1.2,1.8,1.8,2.9,1.8,4.1c-1.2-0.6-1.8-2.3-2.9-2.9c-1.2-0.6-1.8-1.2-2.4-1.8c0,0,0-0.6-0.6-0.6
		c-2.9,1.2-4.7,0-7.1-1.2c-1.2-0.6-2.4-1.8-3.5-2.3c-2.9-1.2-5.3-2.9-7.6-4.7c-2.9-2.3-6.5-3.5-10.6-1.8c-0.6,0-1.2,0-1.8,0
		c-1.2,0-1.8,0.6-2.4,1.2c1.2,0,1.8-0.6,2.9-0.6c0.6,0,1.2-0.6,1.2,0c0.6,0-0.6,0.6-0.6,0.6s-0.6,0.6,0,0.6c0.6,0,0.6,0,0.6-0.6
		c1.2-0.6,1.8-1.2,2.9,0c-0.6,0.6-1.8,0.6-2.4,1.2c1.8,0,2.9-1.2,4.7-0.6c-0.6,0-1.2,0.6-1.8,0.6h0.6c0.6,0,1.2,0,1.2,0.6
		c0,0.6-0.6,0-1.2,0c-1.8,0-4.1,0-5.9,1.2c-0.6,0.6-1.2,0.6-1.8,0.6c-0.6,0-1.2-0.6-1.8-0.6c-1.2,0-2.4,0.6-4.1,0.6
		c-2.4,0.6-4.7,1.2-7.1,1.8c0,0-0.6,0-0.6,0.6H67c2.4,1.2,3.5,0,4.7,0c1.8,0,2.9-0.6,4.7-1.2c0.6,0,1.8-0.6,2.4,0h0.6
		c1.2-0.6,2.4-0.6,3.5-1.2c1.2,0,2.9-1.2,4.7-0.6c0.6,0,1.8,0.6,1.8-0.6l0.6-0.6h0.6c0,0,0,0,0,0.6c-1.2,1.2-1.2,2.9-1.8,4.1
		c1.2,0.6,1.8,0,2.4-1.2c0.6-0.6,0.6-1.2,1.2-1.2h0.6c0,0,0,0,0,0.6c-1.2,0.6-1.2,1.8-1.8,2.3c0,0.6-0.6,0.6-0.6,0.6
		c-2.4-0.6-1.8,0.6-2.4,1.2c-0.6,0.6-0.6,1.2,0.6,1.2c0.6,0,1.2,0,1.2-0.6s0-0.6,0.6-0.6c0.6-0.6,1.2-1.2,1.8-2.3
		c0.6-0.6,0.6-1.2,1.2-1.8c0.6,0,0.6,0,1.2,0c0,0.6,0,0.6-0.6,0.6c-0.6,0-0.6,0.6-0.6,0.6c-0.6,1.2-1.2,1.8-2.4,2.9
		c-0.6,0.6,0,0.6,0,0.6c0.6,0,0.6,0.6,1.2,0c0-0.6,0.6-1.2,1.2-1.2c0.6-0.6,1.8-1.8,2.9-1.8H97c0,0,0,0.6-0.6,0.6
		c-1.2,0-2.4,1.2-2.9,2.3c0,0-0.6,0.6,0,0.6H94c0.6,0,0.6,0,0.6-0.6c1.2-0.6,1.8-1.2,2.9-1.8c0,0,0.6-0.6,1.2,0c0,0,0,0.6-0.6,0.6
		c-0.6,0.6-1.8,1.2-2.4,1.8l-0.6,0.6c0,0.6,0.6,0.6,1.2,0c1.8-1.2,4.1-1.8,5.9-2.3c0.6,0,1.2,0,1.2,0c0,0.6-0.6,0.6-0.6,0.6
		c-1.8,0.6-4.1,0.6-5.9,2.3c0.6,0,1.2,0.6,1.8,0.6c1.8-1.2,3.5-1.2,5.3-1.8c0.6,0,1.8-0.6,2.4-0.6c0,0,0.6,0,0.6,0.6
		c0,0.6-0.6,0-0.6,0c-0.6,0-1.2,0-2.4,0c-2.4,0.6-4.1,1.2-5.9,1.8c-0.6,0-1.2,0-1.2,0.6c-0.6,1.2-1.8,1.2-2.9,1.8c0,0-0.6,0-0.6,0.6
		c0,0-0.6,0-0.6,0.6h0.6c1.2,0,1.8-0.6,2.9-0.6c2.9-1.2,5.3-2.9,8.2-2.9c0.6,0,1.2,0,1.8,0.6c-2.4,0-4.7,0.6-7.6,1.8
		c1.8-0.6,3.5-0.6,5.3-0.6c0.6,0,0.6-0.6,0.6,0c0,0.6,0,0.6-0.6,0.6c0,0,0,0-0.6,0c-1.2,0-2.9,0.6-4.1,0.6c-0.6,0-1.2,0-0.6,0.6
		c0,0.6,0.6,0,1.2,0c0.6,0,0.6,0,1.2,0c1.2,0,2.9,0,4.1-0.6h0.6v0.6c-1.2,0-1.8,0.6-2.9,1.2c-1.8,0.6-2.9,1.2-4.7,1.2
		c0,0-0.6,0-0.6,0.6v0.6c0.6,0,0.6,0,1.2,0c0.6-0.6,1.8-1.2,2.9-1.2c1.2,0,1.8-0.6,2.9-0.6c0.6,0,0.6,0,0.6,0.6c0,0.6-0.6,0-0.6,0
		c-2.4,0-4.7,1.2-7.1,1.2c2.4,0,4.1,0.6,6.5,0h0.6c0,0.6-0.6,0.6-0.6,0.6c-0.6,0-1.2,0-1.8,0.6c-0.6,1.2-1.8,1.2-2.4,1.8
		c-1.2,0.6-2.4,0.6-3.5,1.2c2.4,0.6,4.7-0.6,7.1,0c-1.8,0.6-3.5,0.6-5.3,0.6c1.2,0.6,2.4,0.6,2.9,1.2c-0.6,0-1.2,0-1.2,0
		c-1.8-0.6-3.5-0.6-4.7,0c-0.6,0-0.6,0-0.6,0.6s0.6,0.6,0.6,0.6c1.8,0,3.5,0,5.3,0.6c0.6,0,1.2,0,1.2,0.6s-0.6,0.6-1.2,0.6
		c-1.2,0-2.9,0-4.1-0.6c0.6,0.6,1.2,1.8,2.4,1.8c0.6,0,1.2,0,0.6,0.6c-0.6,0.6,0.6,0.6,0.6,1.2c0.6,0.6,1.2,0.6,1.8,1.2
		c0,0,0.6,0.6,0,0.6h-0.6c0,0-0.6-0.6-0.6,0c-0.6,0.6-1.2,0.6-1.8,0c-1.2-0.6-1.8-0.6-2.4-1.2c-2.9-0.6-4.7-1.8-6.5-1.8
		c-0.6,0-1.2-0.6-0.6-1.2c0.6,0,1.2,0.6,2.4,0.6c-0.6-0.6-1.2-1.2-1.8-1.8l-0.6-0.6c0-0.6,0.6,0,1.2,0c0.6,0,0.6,0.6,1.2,0
		c-0.6-1.2-1.8-0.6-2.4-0.6c-1.8,0.6-4.1,1.2-5.9,1.2c-1.2,0-2.4-0.6-3.5,0c0.6,0.6,1.2,0.6,1.8,0.6c1.8,0.6,2.9,0.6,4.7,1.2
		c0.6,0,0.6,0,0.6,0.6c0,0.6-0.6,0.6-0.6,0c-2.4-1.2-5.3-1.2-7.6-2.3c-0.6,0-0.6,0-0.6-0.6c0-0.6,0.6,0,1.2-0.6c1.8,0,4.1,0,5.9,0
		c0,0,0.6,0,0.6-0.6s0-0.6-0.6-0.6c-1.8-0.6-4.1,0-5.9,0h-0.6h-0.6c0,0,0-0.6,0.6-0.6c0.6,0,1.8-0.6,2.4-0.6c1.8,0.6,3.5,0,5.3,0
		c0.6,0,1.2,0,1.8-0.6c0,0,0.6,0.6,1.8,0.6c0.6,0,1.8,0,2.4,0c0.6,0,1.8,0,2.4-0.6c-2.4,0-4.1-0.6-6.5,0.6c-0.6,0-1.8,0-2.9,0
		c-0.6,0-0.6,0-0.6-0.6c0-0.6,0.6,0,0.6,0c0.6,0,1.2,0,1.8,0c1.2-0.6,2.9-1.2,4.7-1.8h0.6c-1.2-1.2-3.5-0.6-5.3-1.2
		c0-0.6,0.6-0.6,0.6-0.6c-1.2-1.2-2.4-1.8-3.5-2.3c-1.2-0.6-2.4-0.6-2.9,0c1.2,1.2,2.9,1.8,4.7,1.8c-1.2,0-1.2,0.6-0.6,1.2
		c0,0,0,0.6,0.6,0.6v0.6h-0.6c-0.6,0,0-0.6,0-0.6c0-0.6,0-0.6-0.6-0.6c-0.6-1.2-1.8-0.6-2.9-0.6c0.6,0.6,1.8,1.2,2.4,1.7
		c0,0,0.6,0.6,0,0.6h-0.6c-0.6-0.6-0.6-0.6-1.2-1.2c-1.2-1.2-2.4-1.8-4.1-2.9h-0.6v0.6c0,0,0,0,0,0.6c0,0,0.6,0,0,0.6H77
		c-0.6-1.2-1.8-1.8-3.5-1.2h-0.6c-0.6-0.6-1.2,0-1.8,0.6c0.6,0,0.6,0,1.2,0c2.9,0.6,5.3,0.6,7.1,2.9c0.6,0.6,0.6,0.6,1.2,1.2
		c1.2-0.6,1.8,0,1.8,0.6c-0.6,0.6-1.2-0.6-1.2-0.6c-0.6-1.2-2.4-2.3-4.1-2.9c-1.2-0.6-1.8-1.2-2.9-0.6c-2.4-0.6-4.1,0.6-6.5,1.2
		c2.4,0,4.7,0,6.5-1.2c0.6,0.6,0.6,1.2-0.6,1.2c-2.4,0.6-4.1,1.2-6.5,2.3c0.6,0,0.6,0.6,0.6,0.6c1.8,0.6,4.1,0.6,5.9,0
		c0.6-0.6,1.2,0,1.8,0.6c0.6,0,0,1.2,0,1.2c-0.6,1.2-0.6,2.9-1.2,4.7V42c0.6,0,0.6,0,0.6-0.6c0-0.6,0-1.2,0.6-1.8
		c0.6-1.8,0.6-3.5,1.2-5.3c0,0,0-0.6,0.6-0.6c0.6,0,0.6,0.6,0.6,0.6V35c-0.6,1.8-1.2,3.5-1.2,5.8c0.6,0,0.6-0.6,1.2,0
		c2.4,1.2,4.7,1.8,7.1,3.5c0.6,0.6,1.8,0.6,2.9,0c1.2-0.6,2.4-1.2,4.1-1.8h0.6c0,0.6,0,0.6-0.6,0.6c-0.6,0-0.6,0.6-1.2,0.6
		c-1.2,0.6-1.8,1.2-2.9,1.8c1.2,0.6,1.8,0,2.9,0h0.6c0-1.2,1.2-0.6,1.8-1.2c0.6,0,1.2,0,1.2,0.6c0,0.6,0,0.6,0,1.2
		c0.6,0,1.2,0,1.8,0c0,0,0.6,0,0.6,0.6c0,0,0,0-0.6,0.6c-0.6,0-1.2,0.6-1.8,1.2c-0.6,0.6-1.8,1.8-2.9,2.3c-0.6,0-0.6,0-1.2,0
		c0-0.6,0-0.6,0.6-0.6c0.6-0.6,1.2-0.6,1.8-1.2c-1.8,0-1.8,0.6-2.9,1.2c0,0.6-0.6,0.6-1.2,0.6c-1.2-0.6-2.9,0.6-3.5,1.2
		c-0.6,0.6-0.6,1.8-1.2,2.3c0,0-0.6,0.6,0,0.6c0.6,0.6,0.6,1.2,1.8,1.8c0,0,0,0,0.6-0.6c0.6-1.8,2.4-2.9,3.5-4.1
		c0-0.6,0.6-0.6,1.2-0.6c0.6,0,0,0.6,0,0.6c-0.6,1.2-0.6,1.8-1.2,2.9c0,0.6,0,0.6,0.6,0.6c0.6,0,0.6,0,0.6-0.6
		c0.6-0.6,1.2-1.2,1.8-1.8l0.6-0.6c0.6,0,0,0.6,0,0.6c0,0.6,0,0.6,0,1.2c1.2,0,1.2-1.2,1.8-1.8l0.6-0.6c0.6,0,0,0.6,0,0.6
		c-0.6,1.2-1.8,1.8-2.4,2.3c-0.6,0.6-0.6,0.6-0.6,1.2c0.6,0.6,0.6,0,1.2-0.6c0.6-1.2,1.8-2.3,3.5-2.9c0.6,0,1.8-1.2,2.4,0.6
		c0,0.6,0.6,0,0.6,0c2.9-1.2,5.9-1.8,8.8-2.9c0.6,0,0.6-0.6,1.2,0c0,0.6-0.6,0.6-0.6,0.6c-1.2,0-2.4,1.2-4.1,1.2
		c-0.6,0-0.6,0.6-0.6,1.2c0.6,1.2,1.8,2.3,2.4,2.9c1.8,1.8,2.9,2.9,4.7,4.7c0,0,0.6,0.6,0,0.6c-0.6,0-0.6,0-1.2-0.6
		c-0.6-1.2-1.8-1.8-2.4-2.9c-1.2-1.2-2.4-2.3-3.5-3.5c0.6,2.3,1.8,4.1,2.9,5.8c0.6,0.6,1.2,1.8,1.8,2.3c2.4,1.8,4.1,3.5,6.5,5.3
		c0.6,0,0.6,0.6,0,0.6h-0.6c-1.8-0.6-2.4-1.8-4.1-2.9c-1.8-0.6-2.4-2.9-4.1-4.1v-0.6c0-1.2-0.6-1.8-1.2-2.9
		c-1.2-1.8-2.4-3.5-2.9-5.8c0-0.6,0-0.6-1.2-0.6c-2.4,0.6-4.1,1.2-6.5,2.3c-0.6,0.6-1.8,0.6-0.6,1.8c0.6,0.6,0.6,1.2,1.8,1.2
		c0.6,0,0.6,0,0.6,0.6c0,0.6,0.6,0.6,0.6,1.2c0.6,1.8,3.5,2.3,2.9,4.7c0,0,0,0,0.6,0.6c0.6,0.6,1.2,0.6,1.2,1.2l0.6,0.6
		c0,0.6-0.6,0-1.2,0.6c1.2,1.2,2.4,2.3,3.5,3.5c-0.6,0-0.6,0-0.6,0c-1.2-1.2-2.9-2.3-4.1-4.1v-0.6c0-0.6-0.6-1.2-1.2-1.8
		c-0.6-0.6-1.8-1.2-2.4-2.3c-0.6-0.6-1.2-1.2-2.4-1.8c1.2,1.8,2.4,2.9,4.1,4.1c0,0,0.6,0,0.6,0.6c-0.6,0.6-0.6,0-1.2,0
		S97.6,63,97,63c-1.2-1.2-2.4-2.3-3.5-3.5c-0.6-0.6-1.8-1.8-1.2-2.3c0.6-0.6,1.8,0.6,2.4,1.2c1.2,1.2,2.4,2.3,4.1,3.5
		c0-0.6,0-1.2-0.6-1.2c-1.2-1.2-2.9-2.9-4.1-4.1c-1.2-1.2-1.2-1.2-2.9-0.6c-0.6,0-0.6,0.6-0.6,1.2c0,1.2,0.6,1.8,0.6,2.9
		c0.6,1.2,1.2,2.9,1.2,4.1c0,0.6,0,0.6,0.6,1.2c1.2,1.2,2.4,2.9,4.1,4.1c0.6,0.6,0.6,0.6,1.2,1.2c-0.6,0-0.6,0-0.6,0
		c-1.8-1.8-3.5-3.5-5.3-5.3c0,0,0-0.6-0.6-0.6h-0.6c0.6,0.6,0.6,1.2,1.2,1.8c1.2,1.8,2.4,3.5,4.1,4.7c0.6,0,0.6,0.6,0,0.6
		c-0.6,0.6-0.6,0-1.2,0c-1.2-0.6-1.8-1.8-2.4-2.9c-1.2-1.8-2.9-3.5-4.1-5.8c0.6,0,1.2,0.6,1.8,0.6c0.6,0,0.6,0,0.6-0.6
		c-0.6-2.3,0-4.7-1.2-7c0-0.6,0-0.6,0-1.2c0.6-1.2,0.6-1.2-0.6-2.3c-0.6,1.2-0.6,2.3-1.2,3.5v0.6c0,0.6,0,1.2,0.6,1.8v0.6
		c-0.6,0-0.6,0-0.6-0.6c0,0,0-0.6-0.6-0.6c0,2.9,1.2,5.3,3.5,7c-1.8,0-2.4-1.2-2.9-2.3c0.6,0.6-0.6,1.2,0,1.2
		c1.8,1.2,2.9,2.9,4.7,4.1c0,0,0.6,0.6,0,0.6c-0.6,0.6,0,0.6,0,1.2c1.8,1.8,4.1,2.9,5.9,4.7c2.4,1.8,4.7,3.5,7.1,5.3
		c0.6,0.6,1.2,0.6,1.8,1.2c-0.6,0-1.2,0.6-1.8,0c-0.6-0.6-1.2-0.6-1.8-1.2c-1.8-1.2-3.5-2.9-5.3-4.1c-2.4-1.8-4.7-3.5-6.5-5.3
		c-0.6-0.6-1.8-1.2-1.8-2.3c0-0.6,0-1.2-0.6-1.2c-1.2-1.2-1.8-2.3-3.5-3.5c-0.6,0,0-0.6,0-1.2c0-1.2-0.6-1.8-1.2-2.9
		c-0.6,1.2,0,2.3,0.6,4.1c0,0.6,0.6,0.6-0.6,0.6c-0.6,0-0.6,0.6,0,0.6c0.6,0.6,1.2,1.2,1.8,1.8c0,0,0.6,0.6,0,1.2
		c-0.6,0.6-0.6,0-0.6,0c-1.2-0.6-1.8-1.8-2.9-2.3c-0.6,0-0.6-0.6-1.2,0c0.6,1.2,1.8,2.3,2.9,3.5c0,0,0.6,0.6,0,1.2
		c-0.6,0.6-0.6,0-1.2-0.6c-1.2-1.2-2.9-2.3-4.1-3.5c0,0.6,0,0.6,0,0.6c1.2,1.2,2.9,2.9,4.7,4.1c2.4,2.3,5.3,4.1,7.6,6.4
		c1.2,0.6,2.4,1.8,2.9,2.3c0.6,0.6,2.4,1.2,2.9,2.3c0,0,0,0,0.6,0c0.6,0.6,1.8,1.2,2.4,1.2c0.6,0,0.6,0,0.6,0.6
		c-0.6,0.6,0,0.6,0.6,1.2c0.6,0.6,1.8,1.2,2.4,1.8c1.2,0.6,1.8,1.2,3.5,1.2c-1.2-1.2-2.4-1.8-2.9-2.3c-0.6,0-0.6-0.6-1.2-0.6v-0.6
		h0.6c0.6,0.6,1.2,1.2,2.4,0.6c0,0,0,0,0.6,0c0.6,1.2,2.4,1.8,3.5,1.8c0.6,0,0.6,0,0.6-0.6c0-1.2-1.8-2.3-2.4-2.3
		c-1.2,0-2.9-0.6-3.5-1.8c2.4,0.6,5.3,1.2,7.6,2.3c-0.6,0.6-1.2,0-1.8,0c0,0.6,0.6,1.2,1.2,1.2c1.2,1.2,2.9,2.3,4.1,3.5
		c2.9,3.5,6.5,5.8,10,8.2c0.6,0,1.2,0.6,1.2,0s0.6-1.2,0-1.8c-1.8-1.2-3.5-2.9-5.9-4.1h-0.6c-0.6,0-0.6-0.6-0.6-0.6
		c0.6,0,1.2,0,1.2,0.6c0,0,0,0,0.6,0c1.2,0.6,1.8,1.2,2.9,1.8c-1.2-1.8-3.5-2.9-5.3-3.5c0,0-0.6,0-0.6-0.6c0-0.6,0.6,0,0.6-0.6
		c-2.9,1.8-2.9,1.8-2.9,0.6c0.6,0.6,0.6,1.2,1.2,1.2c2.4,1.2,4.7,2.3,7.1,3.5c0.6,0.6,1.2,0,1.2-0.6c0-1.2-0.6-1.8-0.6-2.9
		c0.6,0,0,0.6,0.6,0.6c0-0.6,0.6-1.8,0-2.3v-0.6c0.6,0,0.6-0.6,0-1.2c-0.6-1.2-1.2-2.3-1.8-3.5c-0.6-0.6-1.8-0.6-1.2-1.8
		c0-0.6-0.6-2.3-1.2-2.9c-1.2-1.8-2.9-4.1-4.1-5.8c0-0.6-0.6-0.6-0.6-1.2V70h0.6c0.6,0.6,1.2,1.2,1.8,2.3c0.6,1.2,1.2,1.8,1.8,2.9
		c0-0.6,0-1.2,0-1.2c-1.2-1.8-2.4-4.1-3.5-5.8c-2.4-3.5-5.9-5.8-7.6-9.9c0-0.6-0.6-0.6-0.6-0.6c-1.2-0.6-1.8-1.2-2.9-2.3
		c-0.6-0.6-1.2-1.2-1.8-1.8c1.2,1.2,2.4,2.3,3.5,2.9c1.2,0.6,2.9,1.8,3.5,2.9s1.8,2.3,2.9,3.5c0.6,0.6,0.6,1.8,1.8,1.8
		c-0.6-1.2-1.2-1.8-1.8-2.3c0-0.6-0.6-0.6,0-1.2c0.6,0,1.2-0.6,2.3,0.6c1.8,2.9,3.5,5.8,5.9,8.7c0.6,0.6,0.6,0.6,1.2,1.2
		c-1.2-1.8-2.4-3.5-2.9-5.8c0.6,0,0.6,0,0.6,0c1.8,2.9,3.5,5.8,5.3,8.8c0.6,0.6,0.6,1.2,1.8,1.2c0.6,0,1.2,0.6,1.8,1.2
		c0,0,0.6,0.6,0,0.6c-1.2,0.6,0,0.6,0,1.2c2.4,2.3,4.1,4.1,6.5,5.8c0.6,0.6,1.2,1.2,2.4,2.3c0,0,0.6,0.6,0,0.6c-0.6,0-0.6,0-0.6-0.6
		c-1.8-1.8-3.5-3.5-5.9-5.3c-1.8-1.8-3.5-2.9-4.1-4.7c0-0.6-0.6-0.6-1.2,0s0,0.6,0,0.6c1.8,1.8,2.9,3.5,4.7,5.3
		c0.6,0.6,2.4,1.2,1.8,2.3c-0.6,0-0.6,0-0.6,0c-1.8-1.8-3.5-3.5-5.3-5.3c-1.2-1.2-1.8-2.9-3.5-2.9c0,0.6,0.6,1.2,0.6,1.8
		s0.6,1.2,1.2,1.2c1.2-0.6,1.2,0.6,1.2,0.6c1.2,2.3,2.9,4.1,5.3,5.3c0,0,0.6,0,0.6,0.6c0,0.6-0.6,0-0.6,0.6c1.8,1.8,3.5,3.5,5.9,5.3
		c-0.6-0.6-1.2-1.2-1.8-1.8c0,0-0.6-0.6,0-0.6h0.6c0,0,0.6,0,0.6,0.6c1.2,1.2,1.8,1.8,2.9,2.9c1.2,0.6,2.4,1.2,2.9,2.3
		c-0.6-1.2-1.2-1.8-2.4-2.9c-0.6-0.6-1.8-1.2-2.4-1.8v-0.6h0.6c0.6,0,0.6,0.6,1.8,0.6c-0.6-1.2-1.8-1.8-2.4-2.9
		c0.6,0.6,0.6,0.6,1.2,0.6c1.8,1.8,3.5,3.5,5.9,5.3c0.6,0,0.6,1.2,1.2,0.6c0.6-0.6,0.6-1.2,0.6-1.8c-0.6-0.6-0.6-1.2-0.6-1.8
		c0-1.8-1.2-2.9-2.4-4.1c0,0-0.6,0-0.6-0.6c-1.8-1.8-4.1-3.5-6.5-5.3l-0.6-0.6c1.2,0,1.2,0,0.6-1.2c-1.2-2.3-1.8-4.7-2.9-7
		c0-0.6-0.6-1.2,0-1.2c0.6-0.6,0.6-0.6,0-1.2c0-0.6-0.6-1.2-0.6-1.2s-0.6-0.6,0-0.6s0.6,0,0.6,0l0.6,0.6c1.2,1.8,1.8,3.5,2.9,5.3
		c0.6,1.2,1.2,2.9,2.4,4.1c0-0.6,0-1.2,0-1.8c-0.6-2.3-1.2-4.7-2.4-7c0-0.6-0.6-0.6,0-1.2c0.6,0,0.6,0.6,1.2,0.6
		c0.6,0.6,0.6,1.2,0.6,2.3c0.6,1.8,0.6,4.1,1.2,5.8c0,0.6,0,0.6,0.6,0.6c0.6,0,0-0.6,0.6-0.6c0,1.8,0,2.9,0.6,4.7c0,0,0,0.6-0.6,0.6
		c-0.6,0-0.6,0-0.6-0.6c-0.6-0.6-0.6-1.2-1.2-1.8c-0.6-1.2-1.8-2.3-2.4-4.1c0,1.2,0.6,2.3,0.6,3.5c0,0.6,0,1.8,0.6,2.3
		c1.8,1.8,3.5,2.9,5.3,4.7c0,0,0.6,0.6,0.6,0c0-1.2,0-2.3-0.6-3.5c1.2-1.2,0.6-1.2,0.6-2.3c-0.6-1.2-1.2-2.3-1.2-4.1
		c-1.2-2.9-1.8-5.3-2.4-8.2c0-0.6-0.6-0.6,0-1.2c1.2,3.5,1.8,7.6,3.5,11.1c0-1.8-0.6-3.5-0.6-4.7c-0.6-3.5-1.8-7-2.4-9.9
		c-0.6-2.3-0.6-4.1-0.6-6.4c0-0.6,0-0.6,0.6-0.6c0.6,0,0.6,0.6,0.6,0.6c0.6,2.3,0.6,5.3,1.2,7.6c0.6,2.9,1.8,5.3,1.8,8.2
		c0,1.2,0.6,2.3,0.6,3.5c-0.6-0.6,0-1.8,0-2.3c0.6,1.8,0.6,3.5,1.2,5.8c0,0.6,0.6,0.6,0,1.2c-0.6,0-0.6-0.6-0.6-0.6
		c-0.6-1.2-0.6-1.2-0.6-1.2c1.8,4.1,1.8,8.8,2.4,12.8c1.8-1.2,1.2-2.3,1.8-3.5c0,0,0,0,0-0.6c-0.6-1.2-0.6-2.3-0.6-4.1
		c0.6,1.2,0.6,1.8,0.6,2.9c0,0,0,0.6,0.6,0.6c1.2,0,0.6,0.6,0.6,1.2c0,0.6-0.6,1.2-0.6,2.3c-0.6,1.2-0.6,2.3-0.6,3.5
		c1.2-1.8,1.8-2.9,2.4-4.7c1.2-1.8,1.2-3.5,1.2-5.8c0-0.6-0.6-0.6,0-1.2c0.6,0,0.6,0.6,0.6,1.2c-0.6,1.8,0.6,3.5-0.6,5.3v0.6
		c0,0.6,0,1.8,0,2.3v0.6c0,0,0.6,0,0.6-0.6c1.8-1.8,1.2-4.1,1.8-5.8c-0.6,0-0.6,0-0.6,0c0,0.6-0.6,0.6-0.6,0c-0.6-0.6,0-0.6,0.6-0.6
		l0.6-0.6c1.8-2.9,2.9-6.4,4.1-9.3c0.6-1.2,0.6-2.9,0-4.1c0.6,1.2,1.2,1.8,0.6,2.9c0,1.2,0,1.2,1.2,1.2c-0.6-0.6-0.6-0.6,0-1.2v-0.6
		c0-1.2,0.6-2.3,0-3.5c-0.6-1.2,0-2.3,0-3.5c0-2.3,0-4.7,0-7.6c-0.6-1.8-0.6-4.1-1.2-5.8v-0.6v-0.6h0.6c0,0.6,0,0.6,0,1.2
		c0,2.9,0.6,5.8,1.8,8.8c0,0.6,0,0.6,0.6,1.2c0-0.6,0-1.8,0-2.3c0-1.2,0-2.9,0-4.1c0-0.6,0.6-0.6-0.6-0.6l-0.6-0.6
		c0-0.6,0-0.6,0.6-0.6c0.6,0,1.2-0.6,1.8-1.2c1.2-0.6,1.8-1.2,2.9-1.8c0,0,0.6-0.6,0.6,0v0.6c-0.6,0.6-1.2,1.2-1.8,1.8
		c-0.6,0.6-1.8,1.2-2.4,2.3c2.4-0.6,4.1-1.8,5.9-2.9c0.6,0,0.6-0.6,1.2,0c0.6,0.6,0,0.6-0.6,1.2c-1.8,1.2-3.5,2.9-5.3,4.7
		c2.4-0.6,3.5-1.2,5.3-2.3c0.6-0.6,1.8-0.6,2.4-1.2c0.6-0.6-0.6-1.8-0.6-2.3s0-1.8,0.6-2.3c0.6-0.6,1.2,0,1.8,0
		c1.2,0.6,2.4,1.2,2.9,1.8c0.6,0.6,0.6,0.6,1.8,0.6c-1.2-2.9-4.1-4.7-4.1-8.2c2.4,0.6,2.4,2.3,4.7,3.5c-0.6-1.2-1.2-2.3-1.8-2.9
		v-0.6c0.6,0,0.6,0,0.6,0.6c0.6-1.2,1.2,0,1.8,0.6c0-0.6,0-0.6,0-0.6c-1.2-1.8-2.4-2.9-3.5-4.7c-0.6-0.6-0.6-1.2,0-1.2
		c0.6,0,1.8-0.6,2.4,0.6c0,0,0,0.6,0.6,0.6c0,0,0,0,0-0.6c-1.2-1.8-1.8-2.9-3.5-4.7s-3.5-4.1-5.3-5.8c-1.8-1.8-4.1-4.1-5.9-5.8
		C166.9,24.5,165.7,23.3,165.2,23.3z M65.8,58.3c0.6,1.2,1.8,0.6,2.4,1.2C67.6,58.3,67,57.8,65.8,58.3
		C65.8,57.8,65.8,57.8,65.8,58.3c0-0.6,1.2-0.6,0.6-1.2c-0.6-0.6-0.6-0.6-1.8-0.6c-0.6,0-0.6,0-1.2,0c-0.6-0.6-1.2-1.2-1.8-1.2
		c-0.6,0-0.6-0.6-0.6-0.6c0-0.6,0.6,0,1.2,0c0.6,0,0.6,0.6,1.2,1.2c0.6,0.6,0.6,1.2,1.2,0h0.6c0.6,0.6,0.6,0.6,0.6,1.2
		c0,0.6,0.6,0.6,1.2,1.2c0.6,0,0-0.6,0.6-0.6c0,1.2,0,1.2-0.6,1.8c2.9,1.8,5.3,3.5,7.1,5.8c0-0.6-0.6-0.6,0-1.2
		c0,0.6,1.2,1.2,0.6,2.3c0,0,0,0.6,0.6,0.6c0.6,0,0.6,0.6,1.2,0.6c0,0.6,0.6,1.2,1.2,1.2c0-0.6,0-0.6,0-0.6
		c-0.6-1.2-0.6-2.3-1.2-3.5c-0.6-1.2-0.6-2.3-0.6-3.5c0-0.6,0-1.2-0.6-1.2c-2.4-1.8-4.1-3.5-6.5-4.7c-0.6-0.6-1.2-0.6-0.6-1.2
		c0-0.6,0.6,0,1.2,0c0,0,0.6,0,1.2,0c-0.6,0-1.2-0.6-1.8-0.6c0,0-0.6,0-0.6-0.6c0-0.6,0.6,0,0.6,0c0.6,0,0.6,0.6,1.2,1.2h0.6
		c0-1.2,0.6-2.3,1.2-3.5c-0.6,0-0.6,1.2-1.2,1.2c-0.6,0,0-0.6-0.6-0.6s-0.6,0.6-0.6,1.2s-0.6,1.2-1.2,1.2c-0.6,0,0-0.6-0.6-1.2
		c0,0.6-0.6,0.6-0.6,1.2c0,0.6-0.6,1.2-0.6,1.2c-1.8-3.5-2.9-2.9-3.5-2.3c-1.2,0.6-1.8,1.2-2.9,1.2c-0.6,0-1.2,0-1.2-0.6
		c0-0.6,0-0.6,0.6-1.2c0.6-0.6,1.8-0.6,2.4-1.2c-1.8,0-2.9,0.6-3.5,1.2c-0.6,0-0.6,0.6-1.2,0c0-0.6,0-0.6,0.6-1.2
		c0.6-0.6,1.8-1.2,2.4-2.3c-1.8,1.8-2.9,2.3-4.7,2.9c0,0-0.6,0-0.6,0.6c0,0.6,0.6,0.6,0.6,0.6c1.2,0.6,1.8,0.6,2.9,1.2
		c2.4,1.2,4.1,2.3,6.5,2.9c0,0,0.6,0,0.6,0.6C64.1,58.3,65.8,57.8,65.8,58.3z M57.6,25.7c1.2,0.6,4.1,0.6,5.3-0.6
		c-1.2,0-1.8,0-2.4,0C58.8,25.1,58.2,25.7,57.6,25.7c0,0,0-0.6-0.6-0.6c0-0.6,0-0.6,0.6-0.6c1.8,0,2.9-1.2,4.1-1.8
		c-0.6,0-1.2,0-1.8,0c-2.9,0.6-5.9,1.8-8.8,0.6c-1.2,0-2.4,0.6-2.9,1.2c-1.2,0.6-2.4,0.6-3.5,0c-1.8-1.2-2.4-2.3-3.5-2.9
		c-1.2-0.6-2.4-0.6-2.9,0c0,0.6-0.6,0.6,0,1.2c0.6,0.6,0.6,0,0.6-0.6c0.6,0,0.6-0.6,1.2,0c0.6,1.2,1.2,1.8,1.8,2.9
		c0.6,0.6,0.6,1.2,1.8,1.2c-1.2-1.8-2.4-2.3-2.9-4.1h0.6c1.2,1.8,2.9,2.9,4.7,4.1c0.6,0.6,0,0.6-0.6,0.6c-1.8,0.6-2.9,0-3.5-1.2
		c0,0-0.6-0.6-0.6,0v0.6c0.6,1.2,1.8,2.3,2.9,2.9h0.6c0,0,0.6,0,0-0.6c-1.2-1.2,0-0.6,0.6-0.6c0.6,0,1.2,0,1.2-1.2
		c1.8,1.2,1.8,1.2,3.5,0.6c-0.6-0.6-0.6-0.6,0-1.2c0.6,1.8,1.8,1.8,2.9,1.2c-1.2,0-2.4-0.6-3.5-0.6c0-0.6-0.6-1.2,0-1.8
		c0-0.6,0.6-0.6,1.2-0.6c1.8,0,2.9,0.6,4.7,0c0.6,0,0.6,0,0.6,0.6c0,0.6,0,0.6-0.6,0.6c-1.2,0.6-2.4,0.6-3.5,0.6
		c1.8,0.6,4.1,0.6,6.5,0.6c0.6,0,0.6,0,0.6,0.6c0,0.6-0.6,0.6-0.6,0.6c-1.2,0-2.4,0-3.5,0c-0.6,0-0.6,0-0.6,0.6c0,0.6,0,0.6,0.6,0.6
		c0.6,0,1.8,0,2.4,0c1.8,0,3.5,0.6,4.7,0c1.8-0.6,3.5-1.8,5.3-2.3h-0.6c-1.8,1.2-4.1,0.6-5.9,1.2h-0.6c-0.6-1.2-1.8-0.6-2.4-0.6
		c-0.6,0-0.6,0-0.6-0.6C56.4,26.3,57,26.3,57.6,25.7z M61.1,36.2c0,1.2-0.6,1.8-0.6,2.9c0.6,0,0.6-0.6,1.2-0.6
		c0.6-1.8,0.6-4.1,1.2-5.8c0-1.2,0.6-1.7,1.8-1.7c1.2,0,2.4-0.6,3.5-1.8c-0.6,0-1.2,0-1.2,0c-2.4,1.2-5.3,1.8-7.6,1.2h-0.6
		c-1.8,0-1.8,1.8-2.4,2.3v0.6H57c0.6-0.6,0.6-1.2,1.2-1.8c0,0,0-0.6,0.6,0c0,0,0,0,0,0.6c0,0.6,0,0.6,0,1.2s-0.6,1.8,0,2.3
		c0.6,0,0,0.6,0,1.2s-0.6,1.2-0.6,1.8c0,0-0.6,0.6,0,0.6c0.6,0,0.6,0,1.2-0.6c0.6,0,0.6-0.6,0-0.6c-1.2-1.8,0.6-3.5,0.6-5.8
		c0-0.6,0.6-0.6,0.6-0.6c0.6,0,0.6,0.6,0.6,0.6C61.1,33.8,61.7,35,61.1,36.2c0-0.6,0-1.2,0-1.2c-0.6,1.2-0.6,1.8-1.2,2.9
		C60.5,37.3,61.1,36.8,61.1,36.2z M115.8,114.3c1.2,0.6,1.8,1.8,2.9,2.9c1.2,1.2,1.8,1.8,3.5,2.3c-1.8-2.9-4.7-4.1-7.1-6.4
		C115.2,113.8,115.8,114.3,115.8,114.3c-0.6,0-0.6,0-1.2-0.6c-0.6-1.2-1.8-1.8-2.9-2.3c-0.6-0.6-1.8-0.6-1.8-1.8
		c0-0.6-0.6-0.6-0.6-1.2s-0.6-0.6-1.2-0.6c1.8,2.9,4.7,4.7,7.6,7C115.8,114.9,115.8,114.9,115.8,114.3z M96.4,85.2
		c1.2,0,1.8,0.6,2.9,0.6C98.2,84.6,98.2,84.6,96.4,85.2c0-0.6,0-0.6,0-0.6c-2.4-1.8-5.3-3.5-7.6-5.3c1.2,1.2,1.8,2.9,3.5,3.5
		C93.5,83.4,95.2,84.6,96.4,85.2z M145.8,135.9C146.3,135.9,145.8,137.1,145.8,135.9c1.2,0,1.8-0.6,2.4-0.6c0.6,0,0.6-0.6,0-1.2
		C147.5,135.3,146.9,135.3,145.8,135.9c0-0.6,1.2-1.2,0-1.8c-0.6,0.6-1.2,1.8-1.8,1.8c-1.2,0-1.8,0.6-1.8,1.2
		c-0.6,0.6-1.2,1.2-0.6,1.2c0.6,0.6,1.2,0,1.8-0.6c0,0,0,0,0.6-0.6C144.6,137.7,145.2,136.5,145.8,135.9z M64.7,19.8
		c-0.6,0-1.8-0.6-2.9,0C62.9,19.8,63.5,20.4,64.7,19.8c0,1.2,0.6,1.2,1.8,0.6c1.8,0,3.5-1.2,5.3-1.8C69.4,19.3,67,19.3,64.7,19.8z
		 M43.5,30.9c-0.6,0-0.6-0.6-1.2,0c0.6,1.2,1.2,1.7,1.8,2.9c0,0,0,0.6,0.6,0c1.2-0.6,1.2,0,0.6,0.6c0,0.6,0.6,1.2,0.6,1.8
		c0,0,0.6,0.6,0.6,0c0.6,0,0-0.6,0-0.6C46.4,33.8,44.7,32.7,43.5,30.9c0.6,0,0.6,0.6,1.2,0c-1.2-1.2-1.8-1.8-2.9-2.9l-0.6-0.6
		c0,0-0.6,0-0.6,0.6s0,0.6,0.6,0.6C42.3,29.2,42.9,30.3,43.5,30.9z M57.6,142.3c-1.8-0.6-2.4,0.6-2.9,1.2
		C55.8,143.5,56.4,142.3,57.6,142.3c1.2-0.6,1.8-0.6,2.9-1.2c-0.6,0-1.8,0-2.4,0.6C58.2,141.2,57.6,141.8,57.6,142.3z M107.6,98
		c-0.6,0-0.6-0.6-1.2-0.6c0,1.2,1.2,1.8,1.2,2.3c0.6,1.8,2.4,2.3,2.4,4.1c0,0.6,0.6,0.6,1.2,1.2c1.2,1.2,2.4,2.3,4.1,3.5
		c2.4,1.8,4.7,3.5,7.1,4.7c1.2,0.6,2.4,1.2,3.5,2.3c0,0,0.6,0.6,1.2,0c-0.6-0.6-1.8-1.2-2.4-1.8c-1.8-1.2-2.9-2.3-4.1-3.5
		c-2.9-2.3-5.9-4.1-8.2-6.4c-0.6-0.6-1.8-1.2-1.8-2.3c1.2,0.6,1.8,1.8,2.9,2.3c1.8,1.8,3.5,2.3,5.3,4.1c1.2,0.6,2.4,1.8,2.9,2.3
		c1.2,1.2,2.9,1.8,4.1,2.9c2.4,1.8,4.7,2.9,6.5,5.3c0.6,0,0.6,0.6,1.2,0.6s0-0.6,0-1.2c-0.6-2.3-2.4-4.1-4.7-4.7
		c-2.9-1.2-5.9-2.9-8.2-5.3c-0.6-0.6-1.8-1.2-2.9-2.3c0,0-0.6-0.6-0.6-1.2c2.4,2.3,4.7,3.5,6.5,5.3c2.4,1.8,4.7,2.9,7.6,4.1
		c0-1.8-0.6-3.5-1.2-4.7c-0.6-1.2-1.2-1.8-1.8-2.3c-1.2-0.6-2.4-1.8-3.5-2.9c0.6,0,1.2,0,1.2,0.6c1.2,1.2,2.9,2.3,4.1,3.5
		c0.6,0.6,0.6,0.6,0.6,1.2c0,0.6,0,1.2,0.6,1.8c0.6,1.8,0.6,3.5,1.8,4.7c0,0,0,0,0,0.6c0,1.2,0.6,2.9,1.2,4.1
		c0.6,0.6,0.6,1.2-0.6,1.2c-0.6,0-0.6,0-0.6,0.6c0,0.6,0.6,0,0.6,0.6c0.6,0,1.2,0,1.2,0.6c-0.6,0.6-1.2,0-1.8,0
		c-1.2-0.6-2.9-1.8-4.1-2.3c-0.6-0.6-1.2-0.6-1.8-0.6c1.8,1.8,2.9,3.5,5.3,4.7c1.2,0.6,1.8,2.3,3.5,2.3c0.6,0,0.6,0.6,0.6,0.6
		c-0.6,0.6-0.6,1.8-0.6,2.3c0,0.6,0,1.2,0.6,1.8c0,0,0.6,0.6,0,0.6c-1.2,0-0.6,1.2-0.6,1.2c0,0.6,0.6,0.6,1.2,0.6
		c0.6,0,0.6,0,0.6,0.6c0,0,0,0.6-0.6,0.6c-0.6,0-1.2,0-1.2,1.2c0,0,0,0.6-0.6,0.6c-1.8-0.6-3.5,1.2-4.7,1.2
		c-1.8,0.6-4.1,1.8-5.9,1.8c-1.2,0-1.8,0.6-2.4,0.6c-0.6,0-0.6,0.6-1.2,0c0-0.6,0.6-0.6,0.6-0.6c0.6,0,0.6,0,1.2-0.6
		c0,0,0.6,0,0.6-0.6c0,0,0-0.6-0.6-0.6c-1.8,0.6-4.1-0.6-5.3,1.2c-1.2,1.8-2.9,1.2-4.1,1.8c-0.6,0-0.6,0-0.6-0.6
		c0-1.2-0.6-0.6-1.2-0.6c-1.2,0-1.2,0-1.2-1.2c-0.6,0.6-1.8,0.6-2.4,0.6c-2.4-0.6-6.5,1.2-7.6,2.9c2.4-0.6,4.7-1.2,7.1-1.8
		c1.2,0,1.8-0.6,2.9-0.6c0.6,0,0.6,0,0.6,0.6c0,0.6-0.6,0-0.6,0c-0.6,0-1.2,0-1.2,0.6c-1.8,0.6-2.9,2.3-4.7,2.9
		c2.4-1.2,4.7-1.8,7.1-2.9c0.6,0,1.2-0.6,1.2-0.6c0.6,0.6-0.6,0.6-0.6,1.2c-1.8,1.2-2.4,2.3-2.9,4.1c1.2-1.2,2.9-1.8,4.1-2.9
		c1.8-1.8,4.1-2.3,7.1-3.5c0.6,0,0.6,0,0.6,0c0,0.6,0,0.6-0.6,0.6c-1.2,0.6-1.8,0.6-2.4,1.2c-0.6,0-0.6,0.6-1.2,0.6c0,0-0.6,0,0,0.6
		h0.6c1.8-0.6,4.1-1.2,5.9-1.8c0.6,0,0.6-0.6,0.6,0c0,0.6-0.6,0.6-0.6,0.6c-1.8,0.6-3.5,0.6-5.3,1.2c-1.8,0.6-3.5,1.2-4.7,2.3
		c-0.6,0-0.6,0.6-1.2,0.6c-1.2-0.6-1.2,0-1.8,0.6c-0.6,0.6-0.6,0.6-1.2,1.2c0,0-0.6,0.6-1.2,0c-0.6,0-0.6-0.6,0-1.2
		c0.6-0.6,0.6-1.8,1.2-2.3c0,0,0.6-0.6,0.6-1.2c-0.6-0.6-0.6,0-0.6,0.6c-1.2,0.6-2.4,1.2-3.5,1.8c-0.6,0.6-1.2,0.6-1.8,1.2
		c0,0-0.6,0.6-0.6,0c-0.6,0-0.6-0.6,0-0.6c0.6-1.2,1.2-1.8,2.4-2.9c0.6-0.6,1.8-1.2,2.4-1.8c-0.6-0.6-1.2,0-1.8,0.6
		c-1.8,0.6-4.1,1.2-5.9,2.3c-0.6,0-0.6,0-0.6,0c-0.6-0.6,0-0.6,0-0.6c1.8-2.9,4.7-4.1,8.2-4.1h0.6c0.6,0,0.6,0,0.6-0.6v-0.6
		c-0.6,0-0.6,0-0.6,0c-0.6,0.6-0.6,0.6-1.2,0c-0.6-0.6,0-1.2,0-1.2c0.6-0.6,1.2-1.2,1.8-2.3c0.6-0.6,0.6-1.2,0-1.8
		c-0.6,0-0.6-0.6,0-1.2c0.6-1.8,0-3.5-0.6-4.7c-1.2-2.9-1.8-5.3-2.4-8.2c-0.6-2.3-1.8-4.1-2.4-6.4c-0.6-1.8-1.2-2.9-1.8-4.7
		c-0.6-1.8-1.8-2.9-2.9-4.7c0-0.6-0.6-1.2-0.6-1.8c0.6,1.2,1.2,2.3,2.4,3.5c0-1.2,0-1.8-0.6-2.3c-1.2-1.8-2.4-2.9-2.9-4.7
		c-0.6-1.8-1.8-2.3-2.9-3.5c-1.8-2.3-2.9-4.1-4.1-6.4c0-0.6-0.6-1.2-1.2-1.8c0,1.2,0.6,1.8,1.2,2.9c0.6,2.9,1.8,6.4,3.5,9.3v0.6
		c0.6,3.5,1.2,7,0.6,10.5c0,1.8-0.6,3.5-0.6,5.8c0,1.8-0.6,3.5-0.6,5.3c0,0.6-0.6,1.8-0.6,2.3c-1.2,4.1-1.8,8.2-2.9,12.3
		c-0.6,2.3-0.6,4.7-2.4,6.4c-1.2,1.2-2.4,1.8-3.5,2.3c0,0,0,0-0.6,0c-1.2-1.2-2.4,0-2.9,0.6c-1.8,1.2-2.9,1.8-4.1,2.9
		c-0.6,0.6-1.2,0.6-2.4,1.2c-0.6,0-0.6,0-1.2-0.6c0-0.6,0-0.6,0-1.2c0.6-0.6,1.2-1.2,1.8-1.8c-1.2,0-1.8,0.6-2.4,1.2
		c-1.2,1.2-2.9,1.2-4.7,1.8c-0.6,0-0.6,0-0.6-0.6c0.6-1.2,1.2-1.8,2.4-2.3c0.6,0,0.6-0.6,1.2-0.6c-0.6,0-1.8,0.6-2.4,0.6
		c-2.4,0.6-4.7,1.8-7.1,2.9c-0.6,0-1.2,0.6-1.2,0c0-0.6,0-0.6,0.6-1.2c1.2-1.2,2.9-2.3,4.7-3.5c-1.8-0.6-2.9,0-4.1,0.6
		c-1.8,0.6-3.5,2.3-5.3,2.9c-0.6,0-0.6,0.6-1.2,0c-0.6-0.6,0-0.6,0.6-1.2c1.2-1.2,2.4-2.3,4.1-2.9c1.2-0.6,2.9-1.2,4.1-1.2
		c0.6,0,1.2,0,1.2-1.2s0-1.8,1.2-1.8c0.6,0,0.6-0.6,0.6-0.6c1.2-2.3,1.8-4.1,2.4-6.4c0.6-2.3,0-4.7-0.6-7c-0.6-1.8-1.2-4.1-1.8-5.8
		c-0.6-2.3-1.2-4.7-2.4-6.4c-0.6-1.8-1.2-2.9-1.8-4.7c0-1.2,0.6-1.8,0-2.3c-0.6-0.6,0-1.2-0.6-1.8c0-0.6,0-1.8-1.2-1.2
		c0,0,0-0.6-0.6-0.6c-1.2-4.1-2.4-8.8-3.5-12.8c-0.6-1.8-0.6-2.9-1.2-4.7c-0.6-2.9-1.8-6.4-2.4-9.3c-0.6-2.9-1.8-6.4-2.9-9.3
		c-2.9-4.1-1.8-7.6-2.4-10.5c0-0.6,0.6-1.8,0.6-2.3s0-0.6-0.6-0.6c-1.8,0-3.5,0-5.3,0c-1.8-0.6-3.5,0-5.9,0.6c-0.6,0-1.8,0-2.9,0
		s-1.8,0-2.9,0c-3.5,0-7.1-0.6-10.6-1.8c-1.8-0.6-3.5-1.2-5.9-0.6c-1.8,0-2.9-1.2-4.7-0.6c-0.6,0-1.2-0.6-1.2-0.6
		c0-0.6,0-1.2,0.6-1.8c2.4,0.6,2.9-1.2,4.1-1.2c0.6,0,1.2-0.6,1.8-1.2c0-0.6,1.2-0.6,1.2-0.6c1.2,0.6,2.4-0.6,4.1,0
		c0-0.6-1.2-0.6-0.6-1.2c0.6-1.2,1.2-2.3,2.4-2.3c0.6,0,0.6,0.6,0,0.6L21.2,42c0,0-0.6,0-0.6,0.6c0,0.6,0.6,0,0.6,0h0.6
		c0.6,0.6,0,0.6-0.6,0.6c0,1.2-0.6,1.8-1.8,1.2c-0.6,0-1.2,0-1.8,0.6c-1.2,0.6-1.8,0.6-2.4,0.6c-0.6,0.6-1.2,0.6-1.2,1.2
		c-0.6,0.6-1.2,0.6-1.8,1.2c1.2,0,2.4,0,3.5,0.6c0.6,0,0.6,0,0.6-0.6c0-0.6-0.6-0.6-0.6-0.6c-0.6,0-0.6,0-0.6-0.6c0.6,0,0.6,0,1.2,0
		c1.2,0.6,2.4,0.6,3.5,0.6c1.2,0,1.8,0.6,2.9,0.6c0-1.2-0.6-1.2-1.2-1.2c-1.2,0-1.8-0.6-2.9-0.6c-0.6,0-1.2,0-1.2-0.6
		s0.6-0.6,1.2-0.6c1.2,0,2.4,0,3.5,0c0.6,0,1.2,0,2.4-0.6c0.6-0.6,1.2,0,1.2,0.6c0.6,1.2,1.2,1.8,1.8,2.9c0.6,0.6,1.2,0.6,1.8,0
		c-0.6-0.6-1.8-1.2-1.8-1.8c0-0.6-1.2-0.6-0.6-1.8c0,0-0.6-0.6-1.2-0.6c-1.2,0-1.8,0-2.9-0.6c1.8,0,2.9,0.6,4.1,0.6
		c-0.6-0.6-1.2-1.2-2.4-1.2c-0.6,0-1.2,0-1.2,0c0-0.6,0-0.6,0.6-0.6c0.6,0,0.6-0.6,1.2-1.2c-1.8,0-3.5,0-5.3,0c-0.6,0-1.2,0-1.8,1.2
		c-0.6,0-1.2,0.6-1.8,0.6c-1.2,0-1.2,0.6-2.4,1.2c-1.8,1.2-3.5,2.3-5.3,2.9c-2.4,0.6-3.5,0-4.1-2.3c0-1.8-1.2-2.3-2.9-3.5
		C1.2,40.3,0,39.7,0,38.5c0-0.6,0-0.6,0.6-1.2c2.4-1.8,5.3-2.9,7.6-4.7c2.9-1.7,5.9-3.5,8.8-5.2c0.6-0.6,1.2-1.2,1.2-1.8
		c0.6-1.2,3.5-1.8,4.7-1.2c0.6,0.6,0,1.2,0,1.2c-0.6,0-1.2,0.6-1.8,1.2c0,0.6-0.6,0.6-1.2,0.6c-0.6,0-0.6-0.6-0.6-1.2
		c0,0,0-0.6-0.6-0.6c-0.6,2.9-2.4,3.5-4.1,4.7c-2.9,1.2-5.3,2.9-7.6,4.1C6.5,35,5.9,35,5.3,35.6c4.1-1.8,8.2-3.5,12.3-5.8
		c-0.6,1.2-1.2,1.8-2.4,1.8c-3.5,1.8-7.1,4.1-10.6,5.3c-1.2,0.6-1.8,1.8-1.2,2.3c0.6,0.6,0.6,0.6,0.6,1.2c1.2,0,1.2-0.6,1.8-1.2
		c0.6,0,0.6-1.2,1.2-0.6c0.6,0.6,0,0.6-0.6,1.2c0,1.2-1.2,1.8-1.2,2.9c0.6,0.6,0.6,1.2,0.6,1.8c0.6,1.2,1.8,1.8,3.5,0.6
		c1.8-0.6,3.5-1.8,4.7-2.3c2.4-0.6,3.5-1.8,5.3-2.9c0.6-0.6,1.2-0.6,1.8,0c0.6,0.6,1.2,0.6,1.8,0c0-0.6-1.2,0-1.2-0.6
		c0-0.6,0.6,0,1.2-0.6c-0.6-0.6-0.6-1.2-1.2-1.8c-0.6,0,0-0.6,0.6-1.2c0.6,0,1.2-0.6,0-1.2c-0.6,0-0.6-0.6-0.6-1.2s0-1.2-1.2-1.2
		c-0.6,0,0-0.6,0-0.6c0-0.6,0.6-1.2,1.2-1.2c0.6,0,0.6,0.6,0.6,0.6c0,0.6,0.6,0.6,0.6,0.6c2.4-1.8,4.7-2.9,7.1-4.7
		c0.6-0.6,0.6-0.6,0-1.2c-0.6-0.6-0.6,0-1.2,0c-0.6,0.6-1.2,1.8-2.4,2.3c-1.2,0.6-1.8,1.2-2.4,1.8c0,0-0.6,0.6-1.2,0
		c-0.6,0,0-0.6,0.6-0.6c0.6,0,0.6-0.6,1.2-0.6c0,0,0.6-0.6,0-0.6h-0.6c0,0.6-0.6,1.2-1.2,0.6c-0.6-0.6,0-0.6,0-1.2
		c0.6-0.6,1.2-1.2,1.2-1.8c0.6-0.6,0.6-1.2,1.2,0c1.8-2.3,0.6-4.7,1.2-7.6c0.6,0.6,0.6,1.2,0.6,2.3c1.2-1.8,0.6-2.9,1.8-4.7
		c0.6,1.8,0.6,3.5-0.6,4.7c-1.2,1.2-0.6,2.3-1.2,3.5c0,0.6-0.6,1.8-1.2,2.3c0,0-0.6,0.6,0,0.6h0.6c0.6-0.6,1.2-1.2,2.4-1.8
		c0.6,0,0.6-0.6,0-0.6c-1.2-0.6-0.6-1.8-1.2-2.3c0-0.6,0-0.6,0.6-0.6s0.6,0,0.6,0.6c0,1.2,1.2,2.3,1.2,3.5c0,0,0,1.2,1.2,0.6h0.6
		v0.6c0,0-0.6,0.6,0,0.6c0.6,0,0.6,0,1.2-0.6c0.6-0.6,1.2-1.2,0-1.8c-1.8-1.8-1.8-2.9-2.4-4.7v-0.6c1.2-0.6,0-1.2,0-1.2
		c-0.6,0-0.6,0.6-1.2,0.6c0-0.6-0.6-0.6,0-1.2c1.2-0.6,1.8-1.8,2.4-2.9c0-0.6,1.2-0.6,0-1.2c0-0.6,1.2-1.2,1.2-1.2
		c0.6,0,1.8,0,2.4,0c0.6,0,1.2-0.6,0.6-1.2c0,0-0.6,0-0.6-0.6c0,0-0.6-0.6,0-1.2c0.6-0.6,0.6,0,1.2,0c0.6,1.2,1.2,1.8,1.8,1.8
		c-0.6-1.2,0-1.8,0-2.9s0-1.8,0-2.3c0-0.6,1.2-1.2,1.2-1.8c0,0,0.6-0.6,0-0.6c-1.2-1.2,0-1.8,0-2.9C39.4,0.6,40,0.6,40,0
		c0.6,0,1.2,0,1.2,0v0.6c-1.2,1.7,0,2.9,0.6,4.1c0,0.6,0.6,0.6,1.2,0c0.6,0,0.6-0.6,0-0.6c-0.6-0.6,0-1.2,0-1.2
		c0.6,0,0.6,0.6,0.6,0.6c0.6-1.2,1.2-0.6,1.8-0.6c2.4,1.2,3.5,1.7,4.1,2.9v0.6h-0.6c-1.2-0.6-1.2-1.2-2.4-1.8
		c-1.2,0-1.2,0.6-1.8,1.2v0.6c0,0.6-0.6,1.8-1.2,0c0,1.2,0.6,1.2,0,2.3c-0.6-0.6-0.6-1.2-1.2-1.8c0,0,0,0-0.6,0c0,0-0.6,0-0.6,0.6
		c0.6,0,0,0.6,0,1.2c0.6,0.6,1.2-0.6,1.2,0s-0.6,0-1.2,0.6c0.6,0.6,0.6,0.6,1.2,0c0.6-0.6,1.8-0.6,2.9-1.2c0.6,0,0.6,0,0.6,0.6
		c1.2,0.6,1.8,0,2.4,0c0.6,0,1.2-1.2,1.8-1.2c1.8,0,1.8,0,1.2,1.2c1.2-0.6,1.8-0.6,2.4-1.2c0.6,0.6,0,1.2-0.6,1.8
		c-0.6,0-0.6,0.6-0.6,1.7c0,0.6,0,1.2-0.6,1.8c0,0,0,0.6-0.6,0.6s-0.6-0.6,0-0.6c0.6-0.6,0-1.2,0-1.8c-1.2,0-1.8,1.2-2.9,1.8
		c-0.6,0-0.6,0.6-1.8,0.6c-0.6-0.6-1.2,0.6-1.8,0.6c-0.6,0.6,0.6,0,0.6,0.6c0.6,0.6,0,0.6,0,0.6c-1.2,1.2-5.3,0.6-6.5,0
		c0,0-0.6-0.6,0-0.6h0.6c0.6,0.6,1.8,0.6,3.5,0.6c-0.6-0.6-1.2-0.6-1.2-0.6c-1.2,0-1.8,0-2.4-0.6h-0.6c-1.8,0-2.9,0-4.1,0
		c-0.6,0-1.2,0.6-1.2,1.2c0.6,1.2,0.6,2.3,1.2,2.9c0.6,0,1.2,0,1.2-1.2c0-0.6-0.6-1.2,0-1.8c0.6,0,0.6,0.6,0.6,0.6
		c0,1.8,1.8,2.9,4.1,2.9c0.6,0,1.2,0,1.2,0s0.6,0,0.6,0.6c-0.6,0.6,0.6,1.2,0.6,1.2c0.6,0,1.8,1.2,2.4,0c0-0.6,0.6,0.6,1.2,0
		c0-0.6-0.6-0.6-0.6-0.6c-0.6-0.6-1.2-1.8-1.8-2.3v-0.6c0.6,0,0.6,0,0.6,0.6c0.6,0.6,1.8,1.2,2.4,1.8c0.6,0,1.2,0.6,0.6,1.2V21
		c0.6,0,0.6,0,0.6,0c0-0.6,0.6-0.6,0.6-1.2l0.6-0.6c1.8,0,2.9-1.8,4.7-1.2c0,0,0.6,0,0.6-0.6c-0.6-0.6,0-1.2,0.6-2.3
		c-1.2,0-1.8,0-2.4,1.2c0,0.6,0,0.6-0.6,0.6c-0.6,0-0.6-0.6-0.6-0.6v-0.6c0-1.8,1.2-3.5,1.8-5.3c0-0.6,0.6-1.2,1.2-1.2
		c0.6,0,0.6-0.6,0.6-0.6c0.6-0.6,0-1.2,0.6-1.2c0.6,0,1.2,0.6,1.8,0.6c0.6,0.6,1.8,1.2,2.4,1.2c0.6,0,0.6,0.6,1.8,0
		c-1.8-1.2-2.9-1.8-4.7-2.9c1.2,0,1.8,0,2.9,0.6c2.9,1.8,5.9,2.3,8.8,2.9h0.6h0.6c0,0.6,0,0.6-0.6,0.6c-0.6,0-1.2-0.6-1.2,0
		c0,0.6,0.6,0.6,0.6,0.6c1.8,0.6,2.9,0.6,4.1,1.2c0,0,0.6,0,0.6-0.6c-1.2,0-2.4-0.6-3.5-1.2c1.2,0,2.4,0.6,3.5,0.6
		c1.8,0.6,3.5,0.6,5.3-0.6c1.2-0.6,2.4-0.6,3.5-1.8h0.6c0.6,0.6,2.4,0.6,2.9,0c0.6-0.6,1.8-0.6,2.4-0.6c1.2,0,2.4,0,2.9,0.6
		c1.8,1.2,3.5,2.3,5.3,3.5c1.2,1.2,3.5,2.3,5.3,2.9c1.2,0.6,1.8,1.2,2.4,1.8c1.8,2.9,4.1,3.5,7.6,2.9c1.8-0.6,3.5-0.6,5.3-0.6
		c1.2,0,2.4-0.6,3.5-1.2c1.8-1.2,3.5-1.8,5.3-1.8c1.8-0.6,3.5-0.6,5.3-1.2c2.9-1.2,5.3-0.6,8.2,0c1.2,0,2.4,0.6,3.5,0
		c1.2,0,1.8,0,2.4,0c2.4,0,5.3,0,7.6,1.2c2.4,1.2,5.3,1.8,7.1,2.9c2.4,1.8,5.3,3.5,7.6,5.8c2.9,1.8,4.7,4.7,7.1,7
		c2.4,2.3,4.7,5.3,7.1,8.2c1.2,1.2,2.4,2.9,2.9,4.1c1.2,2.3,2.3,4.1,4.1,5.8c0.6,0.6,0.6,1.8,1.2,2.3c1.8,3.5,2.9,7.6,5.3,11.1
		c0.6,0.6,0.6,1.2,0.6,2.3c0.6,2.3,2.9,4.7,3.5,7c0.6,1.8,1.2,3.5,1.8,5.3c0.6,1.2,0.6,2.3,0.6,2.9c0.6,2.3,1.2,4.7,1.8,7
		c0,0,0,0.6,0,1.2c-1.2-1.2-1.8-2.9-2.9-4.1c0.6,1.2,1.2,1.8,1.2,2.9c0,0.6,0.6,1.2,0,1.8c-0.6,0-0.6-0.6-1.2-1.2
		c-0.6-1.2-0.6-2.3-1.8-3.5c0,1.8,0.6,3.5,0.6,5.3V91c0,0.6,0,0.6,0,1.2c-0.6,0-0.6-0.6-0.6-0.6c0-1.2-0.6-1.8-0.6-2.9
		c0,0,0-0.6-0.6-0.6c-0.6,0,0,0.6,0,1.2c0.6,1.2,0.6,1.8,0,2.9v0.6c-1.2-0.6-1.2,0.6-2.4,1.2c-1.2,0.6-1.8,1.8-0.6,2.9
		c0.6,1.2,1.2,1.8,1.8,2.9c0,0,0.6,0.6,0,1.2c-0.6,0-0.6,0-0.6-0.6c-0.6-1.7-1.8-2.9-2.4-4.7c-0.6,0.6-0.6,1.2,0,1.8
		c0.6,1.2,1.8,2.9,2.4,4.7c0,0,0.6,0.6,0,0.6c-0.6,0.6-0.6,0-0.6-0.6c-1.2-1.2-1.8-2.9-2.9-4.1c0,0,0-0.6-0.6,0c0,0-0.6,0.6,0,0.6
		c1.2,2.3,2.9,4.7,4.1,7c0,0,0.6,0.6,0,0.6c-0.6,0-0.6,0-0.6-0.6c-1.2-2.3-2.4-4.1-3.5-6.4c-0.6-0.6-0.6-0.6-1.2,0
		c-0.6,0.6-1.2,1.2-1.8,1.8c-0.6,0.6-0.6,1.2-1.8,0.6c-0.6,0-1.2,0.6-1.2,1.2c0,0.6-0.6,1.8,1.2,1.2c0.6,0,0.6,0.6,1.2,1.2
		c0.6,1.2,1.2,1.8,1.2,2.9c0,0,0,0,0.6,0.6c0.6-0.6,0.6-1.8,0-2.3l-0.6-0.6V105c0.6,0,0.6,0,0.6,0.6c0.6,0.6,0.6,1.2,1.2,1.8
		c0-0.6-0.6-1.2-0.6-1.8c0,0,0-0.6,0.6-0.6c0.6,0,0.6,0,0.6,0.6c0.6,1.2,1.2,2.9,1.8,4.1c0,0.6,0.6,1.2,0.6,1.8
		c-0.6,0-1.2,0-1.2-0.6c0-1.2-0.6-1.8-1.8-1.8c0,0,0,0.6,0.6,0.6c0,0.6,0.6,1.2,0,1.2c-0.6,0.6-0.6-0.6-0.6-0.6s0-0.6-0.6,0
		c0.6,2.3,0.6,2.3,0,2.9c0.6,1.2,0.6,2.3,1.2,3.5c0-0.6,0-1.2,0-1.8c0-0.6,0-0.6,0.6-0.6s0.6,0,0.6,0.6c0,1.2,0.6,1.8,0.6,2.9
		c0,0,0,0.6,0.6,0.6v-0.6v-0.6c0-0.6,0-1.2,0.6-1.8c0.6,0,0.6,0.6,0.6,1.2c0.6,1.2,0.6,2.9,1.8,4.1c0-2.3,0-4.7-1.2-6.4
		c-0.6-0.6-0.6-1.8-0.6-2.3c0.6,0,0,0.6,1.2,0.6c0-0.6-0.6-1.2-0.6-2.3c0-0.6,0-1.2-0.6-1.8c0-0.6,0-1.2,0.6-1.2
		c0.6,0,0.6,0.6,1.2,0.6c1.2,1.8,1.8,2.9,2.9,4.7c0-1.2-0.6-2.3-0.6-3.5c0-0.6,0-0.6,0-1.2c0-0.6-0.6-1.2,0.6-1.2
		c0.6,0,0.6,0.6,1.2,1.2c0,0.6,0.6,0.6,1.2,1.2c0-1.2,0-1.8,0-2.9c0-0.6,0-1.2,0-1.2c0.6,0,0.6,0.6,1.2,0.6c0-1.2-0.6-2.3,0-3.5
		c1.2,2.3,1.8,4.7,2.9,6.4c0-1.8-0.6-2.9-0.6-4.7c0.6,0.6,0,1.2,1.2,1.8c0-1.2,0-2.3-1.2-2.9c-0.6-0.6-0.6-1.2,0-1.2
		c1.2,0,1.2,1.8,1.8,2.3c0-3.5-1.2-7-1.2-10.5c0.6,0.6,0.6,0.6,0.6,1.2c0,1.8,0.6,3.5,0.6,4.7c0,0,0,0,0,0.6
		c2.4,1.2,1.8,3.5,1.8,5.3c0.6,2.3,0.6,5.3,1.2,7.6c0,0.6-0.6,1.8,0,2.3c0.6,2.3,0,4.7,1.2,6.4c0.6,0.6,1.2,1.8-0.6,1.8
		c-0.6,0-0.6,0.6-0.6,1.2c0,1.2-0.6,2.3-1.2,3.5c-0.6,1.2-1.2,1.8,0,2.9c-0.6,0,0-1.2-0.6-0.6c-0.6,0-0.6,0.6-0.6,1.2
		s0.6,1.2,0.6,1.8c-0.6,0-0.6-0.6-1.2-0.6c0,0.6-1.2,1.2,0,1.8c0.6,0.6,0,0.6-0.6,1.2c0,0.6,0.6,0.6,1.2,1.2c0.6,0,0.6,0.6,0.6,1.2
		c0,0.6-0.6,0.6-0.6,0.6c-0.6,0-1.2,0-1.2-0.6c0-0.6,0-0.6-0.6-0.6c0,0-0.6,0.6-0.6,0c-0.6-1.8-2.9-1.2-4.1-1.8
		c1.2,0.6,2.4,1.2,3.5,1.8c0.6,0,0.6,0,0.6,0.6c0,0.6-0.6,0-1.2,0s-1.2,0-1.2,0.6h-0.6c-2.9,0-4.1,2.3-5.9,3.5
		c-1.2,0.6-2.4,1.8-3.5,2.9c-0.6,0-1.2,0.6-1.8,0.6c-0.6,0-0.6,0-1.2,0c0-0.6,0-0.6,0-1.2c0.6-0.6,1.2-1.8,1.8-2.3
		c-1.2,0.6-2.4,1.2-3.5,1.8c-0.6,0-1.2,0.6-1.8,0c-0.6-0.6,0-1.2,0-1.8c0.6-0.6,1.8-1.2,2.4-1.8c0.6,0,0.6-0.6,0-0.6
		c-0.6-0.6,0.6-0.6,0-1.2c-2.4,1.2-4.1,2.3-6.5,3.5c-0.6,0-1.2,0.6-1.2,0.6c-0.6,0-0.6,0.6-1.2,0v-0.6c0,0,0.6,0,0.6-0.6
		c-0.6,0-1.8,0-2.4,0.6c-0.6,0-0.6,0-1.2-0.6c0-0.6,0-0.6,0-1.2c1.2-1.2,2.9-2.3,4.1-2.9c1.2-0.6,2.4-1.8,4.1-1.2h0.6
		c0-1.2,1.8-1.8,1.2-2.9c0-1.2,0.6-1.8,0-2.9c-0.6,0,0-0.6,0-1.2c0-2.3,0.6-4.7,0.6-7c0.6-2.3-0.6-5.3-1.2-7.6
		c-0.6-2.9-1.8-5.3-2.9-8.2c-1.2-2.3-1.8-4.7-2.9-7c0-0.6-0.6-0.6-0.6-0.6c-2.9-1.2-5.3-2.9-7.6-4.7c-1.2-1.2-2.9-1.8-4.7-2.9
		c-0.6,2.3-0.6,4.7,0,7c0,1.8,0,3.5,1.2,5.3v0.6c-0.6,0-0.6,0-0.6-0.6c0,0,0-0.6-0.6-0.6c0.6,1.2-1.2,2.3,0,3.5l-0.6,0.6l-0.6-0.6
		c0,1.2,0.6,2.3,0.6,2.9c0.6,1.2,0.6,1.8,0.6,2.9s0.6,2.3,1.2,3.5v0.6c0,0.6,0,1.2-0.6,0.6c-0.6,0-0.6,0-1.2,0s0,0.6,0,0.6
		c0.6,1.2,1.2,2.3,1.2,4.1c0,0.6,0.6,0.6,0,1.2c-0.6,0-0.6-0.6-1.2-0.6c-0.6-1.2-1.2-2.3-1.8-3.5c-0.6-1.8-1.2-2.9-2.4-4.7
		c0,0,0-0.6-0.6,0c0.6,1.8,1.2,2.9,1.8,4.7c0.6,1.8,1.8,3.5,2.4,4.7v0.6c-0.6,0-0.6,0-0.6,0c-0.6-0.6-0.6-0.6-0.6-1.2
		c-0.6-2.3-1.8-4.1-2.9-6.4c0,1.2,1.2,2.3,1.2,4.1c0.6,1.2,1.2,2.3,1.8,2.9c0,0.6,0.6,1.2,1.8,1.2c0.6,0,0.6,0.6,0.6,1.2
		c0.6,0,0.6-0.6,1.2-0.6s0,0.6,0,1.2c0,1.8-0.6,3.5-1.2,5.3c0,0.6,0,0.6,0.6,1.2c1.8,0,1.8,0,0.6,1.2c-1.2,1.8-1.8,3.5-2.9,5.3
		c-0.6,0.6-0.6,1.2-1.2,1.8c-0.6,0.6-0.6,0.6-1.2,0.6c-0.6,0-0.6-0.6-0.6-1.2c0.6-1.2,1.2-2.9,1.2-4.7c0-0.6,0-0.6-0.6-1.2
		c-0.6,0-0.6,0.6-0.6,0.6c-1.8,1.8-2.9,4.1-5.3,5.8c-0.6,0.6-0.6,0.6-1.2,0.6c-0.6,0-0.6-0.6-0.6-1.2c0.6-1.8,1.2-2.9,2.4-4.1
		c1.2-0.6,0.6-1.8,1.8-2.9c-1.2,0-1.8,0.6-1.8,1.2c-1.8,2.3-4.1,4.1-5.9,5.8c-0.6,0.6-1.2,1.8-2.4,2.3c0,0-0.6,0.6-1.2,0.6
		s-0.6-0.6,0-1.2c0.6-1.2,1.2-2.3,1.8-3.5c0.6-1.8,1.8-2.9,2.9-4.7c-1.2,0.6-2.4,0.6-2.4,1.2c0,0,0,0-0.6,0
		c-2.4,1.2-3.5,2.9-4.7,4.7c-0.6,0.6-0.6,1.2-1.2,1.8c0,0,0,0.6-0.6,0.6c-0.6,0-0.6-0.6-0.6-1.2c0-1.2,0.6-2.9,1.8-4.1v-0.6
		c-1.2,0.6-1.8,1.8-2.4,2.3c-0.6,0.6-1.2,0.6-1.8,0s0-1.2,0-1.8c1.2-1.2,2.4-2.3,3.5-3.5c2.4-2.3,4.1-4.7,3.5-8.2
		c0-1.2-1.2-2.9-1.8-4.1c-1.2-1.8-1.8-3.5-2.4-5.3c0-0.6-0.6-1.2-1.2-1.8c-1.2-2.3-1.8-5.3-2.4-7.6c-0.6-2.3-0.6-5.3-0.6-7.6
		c0-1.2-0.6-1.8,0-2.9c0-0.6-0.6-1.2-1.2-1.2c-1.2,0-2.4-0.6-3.5-1.2c0,0,0,0-0.6,0c-1.2,0.6-1.8,0-2.4-0.6
		c-1.8-1.8-2.4-3.5-4.1-5.3c0,0.6,0,1.8,0,2.3c0,2.9-0.6,5.8,0.6,8.2c0.6,1.2,0,1.8-1.8,1.8c-2.4-0.6-4.1-1.8-5.9-2.3h-0.6
		c0.6,0.6,1.2,0.6,1.8,1.2l0.6,0.6c-0.6,0.6-0.6,0-1.2,0c-1.8-1.8-3.5-2.9-5.9-4.1c-0.6,0-0.6-0.6-0.6-0.6s-0.6-1.2-1.2,0
		c-0.6,0.6-1.8,0-2.4,0c-0.6,0-1.2-0.6-2.4-0.6c0.6,0.6,1.2,1.2,1.8,1.8c0.6,0,0.6,0.6,0.6,1.2c0,0.6-0.6,0-1.2,0.6
		c1.2,1.2,2.4,1.8,3.5,2.9l0.6,0.6c-0.6,0.6-0.6,0-0.6,0c-1.8-1.2-2.9-2.9-5.3-4.1c-0.6-0.6-1.2-0.6-1.8-1.2c-0.6,0.6-0.6,1.2,0,1.8
		C107,97.4,107.6,98,107.6,98z"/>
</g>
</svg>
